<?xml version="1.0" encoding="UTF-8" standalone="no"?>
<!DOCTYPE svg PUBLIC "-//W3C//DTD SVG 1.1//EN" "http://www.w3.org/Graphics/SVG/1.1/DTD/svg11.dtd">
<svg version="1.1" xmlns="http://www.w3.org/2000/svg" xmlns:xlink="http://www.w3.org/1999/xlink" preserveAspectRatio="xMidYMid meet" viewBox="0 0 640 640" width="640" height="640"><defs><path d="M372.82 120.02L373.24 120.06L373.67 120.11L374.09 120.17L374.51 120.26L374.93 120.36L375.35 120.48L375.76 120.61L376.16 120.76L376.57 120.93L376.96 121.11L377.35 121.31L377.74 121.53L378.12 121.76L378.49 122.01L378.85 122.28L379.21 122.56L379.56 122.86L379.89 123.18L380.22 123.51L380.53 123.85L380.82 124.2L381.1 124.56L381.36 124.92L381.6 125.29L381.83 125.67L382.04 126.06L382.24 126.45L382.41 126.85L382.58 127.25L382.72 127.66L382.85 128.07L382.96 128.49L383.06 128.9L383.14 129.33L383.2 129.75L383.25 130.17L383.28 130.6L383.3 131.03L383.3 131.45L383.28 131.88L383.24 132.31L383.19 132.73L383.12 133.16L383.04 133.58L382.94 133.99L382.82 134.41L382.69 134.82L382.54 135.23L382.37 135.63L382.18 136.03L381.98 136.42L381.77 136.8L381.53 137.18L381.28 137.55L381.02 137.92L380.73 138.27L380.43 138.62L380.12 138.96L236.46 287.18L239.78 289.68L243.04 292.24L246.24 294.87L249.38 297.57L252.45 300.33L255.45 303.15L258.38 306.03L261.25 308.97L264.05 311.97L266.78 315.02L269.43 318.13L272.02 321.3L274.54 324.51L276.99 327.78L279.36 331.09L281.66 334.46L283.88 337.87L286.03 341.33L288.11 344.83L290.11 348.38L292.03 351.97L293.87 355.6L295.64 359.27L297.33 362.98L298.93 366.73L300.46 370.51L301.91 374.32L303.27 378.17L304.55 382.06L305.75 385.97L306.86 389.91L307.89 393.88L308.84 397.88L309.7 401.9L310.47 405.95L311.16 410.02L311.75 414.11L312.26 418.22L312.68 422.35L313.01 426.5L564.89 426.5L565.35 426.51L565.8 426.54L566.24 426.59L566.69 426.65L567.12 426.73L567.55 426.83L567.97 426.94L568.39 427.07L568.8 427.22L569.2 427.38L569.6 427.56L569.98 427.75L570.36 427.95L570.73 428.17L571.09 428.41L571.44 428.65L571.78 428.91L572.11 429.19L572.43 429.47L572.74 429.77L573.03 430.08L573.32 430.39L573.59 430.72L573.85 431.06L574.1 431.41L574.33 431.77L574.55 432.14L574.75 432.52L574.95 432.91L575.12 433.3L575.28 433.7L575.43 434.11L575.56 434.53L575.68 434.95L575.77 435.38L575.85 435.82L575.92 436.26L575.96 436.71L575.99 437.16L576 437.61L575.99 438.07L575.96 438.52L575.92 438.97L575.85 439.41L575.77 439.85L575.68 440.28L575.56 440.7L575.43 441.12L575.28 441.53L575.12 441.93L574.95 442.32L574.75 442.71L574.55 443.09L574.33 443.46L574.1 443.82L573.85 444.17L573.59 444.51L573.32 444.84L573.03 445.15L572.74 445.46L572.43 445.76L572.11 446.04L571.78 446.31L571.44 446.57L571.09 446.82L570.73 447.05L570.36 447.27L569.98 447.48L569.6 447.67L569.2 447.85L568.8 448.01L568.39 448.16L567.97 448.29L567.55 448.4L567.12 448.5L566.69 448.58L566.24 448.64L565.8 448.69L565.35 448.72L564.89 448.73L75.13 448.73L74.91 448.72L74.7 448.72L74.48 448.71L74.27 448.69L74.05 448.67L73.84 448.65L73.63 448.62L73.42 448.59L73.21 448.56L73.01 448.52L72.8 448.48L72.6 448.43L72.39 448.38L72.19 448.33L71.99 448.27L71.79 448.21L71.59 448.14L71.39 448.07L71.2 448L71 447.92L70.81 447.84L70.62 447.75L70.43 447.67L70.24 447.57L70.05 447.48L69.87 447.38L69.68 447.28L69.5 447.17L69.32 447.06L69.14 446.94L68.97 446.83L68.79 446.71L68.62 446.58L68.45 446.45L68.28 446.32L68.11 446.19L67.94 446.05L67.78 445.91L67.62 445.76L67.46 445.61L67.14 445.28L66.83 444.94L66.53 444.59L66.25 444.24L65.99 443.87L65.75 443.5L65.52 443.11L65.3 442.72L65.11 442.33L64.92 441.93L64.76 441.52L64.61 441.11L64.48 440.7L64.36 440.28L64.26 439.85L64.18 439.43L64.11 439L64.06 438.57L64.02 438.14L64 437.71L64 437.28L64.01 436.85L64.05 436.42L64.09 435.99L64.16 435.56L64.24 435.14L64.33 434.72L64.45 434.3L64.58 433.88L64.73 433.47L64.89 433.07L65.07 432.67L65.27 432.28L65.48 431.89L65.72 431.51L65.96 431.13L66.23 430.77L66.51 430.41L66.81 430.06L67.13 429.73L211.23 281.18L364.12 123.4L364.45 123.08L364.79 122.77L365.14 122.48L365.49 122.2L365.86 121.94L366.23 121.7L366.61 121.47L367 121.26L367.39 121.06L367.79 120.88L368.19 120.72L368.6 120.58L369.01 120.45L369.42 120.33L369.84 120.24L370.26 120.16L370.69 120.09L371.11 120.05L371.54 120.01L371.96 120L372.39 120L372.82 120.02ZM290.79 426.5L290.47 422.8L290.07 419.12L289.59 415.46L289.03 411.81L288.39 408.19L287.67 404.58L286.87 401L285.99 397.45L285.04 393.91L284.01 390.41L282.9 386.93L281.72 383.48L280.46 380.07L279.13 376.68L277.72 373.32L276.24 370L274.69 366.72L273.07 363.47L271.38 360.25L269.62 357.08L267.79 353.94L265.89 350.84L263.93 347.79L261.89 344.78L259.79 341.81L257.63 338.89L255.4 336.01L253.1 333.19L250.74 330.41L248.32 327.68L245.84 325L243.29 322.38L240.68 319.8L238.02 317.29L235.29 314.83L232.5 312.42L229.66 310.07L226.76 307.79L223.8 305.56L220.79 303.4L101.35 426.5L290.79 426.5Z" id="e1cUwG4X37"></path></defs><g><g><g><use xlink:href="#e1cUwG4X37" opacity="1" fill="#38393b" fill-opacity="1"></use><g><use xlink:href="#e1cUwG4X37" opacity="1" fill-opacity="0" stroke="#000000" stroke-width="3" stroke-opacity="0"></use></g></g></g></g></svg>