<?xml version="1.0" encoding="UTF-8" standalone="no"?>
<!DOCTYPE svg PUBLIC "-//W3C//DTD SVG 1.1//EN" "http://www.w3.org/Graphics/SVG/1.1/DTD/svg11.dtd">
<svg version="1.1" xmlns="http://www.w3.org/2000/svg" xmlns:xlink="http://www.w3.org/1999/xlink" preserveAspectRatio="xMidYMid meet" viewBox="0 0 640 640" width="640" height="640"><defs><path d="M485.33 211.77C489.75 211.77 493.33 215.37 493.33 219.77C493.33 250.46 493.33 495.98 493.33 526.67C493.33 540.22 487.77 552.55 478.83 561.5C469.9 570.43 457.55 576 444 576C419.2 576 220.8 576 196 576C182.45 576 170.08 570.43 161.17 561.5C152.23 552.57 146.67 540.23 146.67 526.67C146.67 495.98 146.67 250.46 146.67 219.77C146.67 215.35 150.25 211.77 154.67 211.77C159.08 211.77 162.67 215.37 162.67 219.77C162.67 250.46 162.67 495.98 162.67 526.67C162.67 535.8 166.43 544.15 172.47 550.18C178.5 556.22 186.85 560 195.98 560C220.78 560 419.19 560 443.99 560C453.12 560 461.45 556.22 467.48 550.18C473.53 544.13 477.3 535.8 477.3 526.68C477.3 506.22 477.3 403.92 477.3 219.77L477.33 219.77C479.72 214.43 482.39 211.77 485.33 211.77Z" id="e1bEPiGNmq"></path><path d="M252.33 514C247.92 514 244.33 510.42 244.33 506C244.33 477.58 244.33 250.25 244.33 221.83C244.33 217.42 247.92 213.83 252.33 213.83C256.75 213.83 260.33 217.42 260.33 221.83C260.33 240.78 260.33 335.5 260.33 506C257.94 511.33 255.28 514 252.33 514Z" id="c5I6x6I5r8"></path><path d="M320 514C315.58 514 312 510.42 312 506C312 477.58 312 250.25 312 221.83C312 217.42 315.58 213.83 320 213.83C324.42 213.83 328 217.42 328 221.83C328 240.78 328 335.5 328 506C325.61 511.33 322.95 514 320 514Z" id="a2HcwUTQFQ"></path><path d="M387.68 514C383.27 514 379.68 510.42 379.68 506C379.68 477.58 379.68 250.25 379.68 221.83C379.68 217.42 383.27 213.83 387.68 213.83C392.1 213.83 395.68 217.42 395.68 221.83C395.68 240.78 395.68 335.5 395.68 506L395.68 506C393.3 511.33 390.63 514 387.68 514Z" id="c3adeUKPA"></path><path d="M247.67 121.33C243.25 121.33 239.67 117.75 239.67 113.33C239.67 99.75 245.22 87.42 254.15 78.48C263.08 69.55 275.42 64 289 64C295.2 64 344.8 64 351 64C364.57 64 376.9 69.57 385.83 78.5C394.77 87.43 400.33 99.8 400.33 113.33C400.33 117.75 396.75 121.33 392.33 121.33C387.92 121.33 384.33 117.75 384.33 113.33C384.33 104.2 380.57 95.85 374.53 89.82C368.5 83.78 360.15 80 351.02 80C344.82 80 295.22 80 289.02 80C279.87 80 271.53 83.77 265.48 89.8C259.43 95.85 255.67 104.18 255.67 113.33C255.67 117.75 252.08 121.33 247.67 121.33Z" id="aPREXfhP7"></path><path d="M507.17 136.36L507.75 136.39L508.33 136.43L508.91 136.48L509.48 136.55L510.05 136.62L510.62 136.71L511.18 136.81L511.74 136.92L512.29 137.04L512.85 137.17L513.39 137.31L513.94 137.46L514.47 137.62L515.01 137.8L515.54 137.98L516.07 138.17L516.59 138.38L517.1 138.59L517.61 138.81L518.12 139.05L518.62 139.29L519.11 139.54L519.6 139.8L520.09 140.07L520.57 140.35L521.04 140.64L521.51 140.94L521.97 141.24L522.42 141.55L522.87 141.88L523.31 142.21L523.75 142.55L524.18 142.9L524.6 143.25L525.01 143.61L525.42 143.98L525.82 144.36L526.22 144.75L526.25 144.78L526.64 145.18L527.01 145.58L527.39 145.99L527.75 146.4L528.1 146.82L528.45 147.25L528.79 147.69L529.12 148.13L529.44 148.58L529.76 149.03L530.06 149.49L530.36 149.96L530.65 150.43L530.93 150.91L531.2 151.4L531.46 151.89L531.71 152.38L531.95 152.88L532.19 153.39L532.41 153.9L532.62 154.41L532.82 154.93L533.02 155.46L533.2 155.99L533.37 156.52L533.54 157.06L533.69 157.61L533.83 158.15L533.96 158.71L534.08 159.26L534.19 159.82L534.29 160.38L534.38 160.95L534.45 161.52L534.52 162.09L534.57 162.67L534.61 163.25L534.64 163.83L534.66 164.41L534.67 165L534.67 185.67L534.66 186L534.64 186.32L534.61 186.65L534.56 186.96L534.5 187.28L534.43 187.59L534.35 187.89L534.26 188.19L534.15 188.49L534.04 188.78L533.91 189.06L533.77 189.34L533.63 189.61L533.47 189.88L533.3 190.14L533.12 190.39L532.94 190.64L532.74 190.87L532.54 191.1L532.32 191.32L532.1 191.54L531.87 191.74L531.63 191.94L531.39 192.12L531.14 192.3L530.88 192.47L530.61 192.63L530.34 192.77L530.06 192.91L529.78 193.04L529.49 193.15L529.19 193.26L528.89 193.35L528.59 193.43L528.28 193.5L527.96 193.56L527.64 193.61L527.32 193.64L527 193.66L526.67 193.67L113.33 193.67L113 193.66L112.68 193.64L112.36 193.61L112.04 193.56L111.72 193.5L111.41 193.43L111.11 193.35L110.81 193.26L110.51 193.15L110.22 193.04L109.94 192.91L109.66 192.77L109.39 192.63L109.12 192.47L108.86 192.3L108.61 192.12L108.37 191.94L108.13 191.74L107.9 191.54L107.68 191.32L107.46 191.1L107.26 190.87L107.06 190.64L106.88 190.39L106.7 190.14L106.53 189.88L106.37 189.61L106.23 189.34L106.09 189.06L105.96 188.78L105.85 188.49L105.74 188.19L105.65 187.89L105.57 187.59L105.5 187.28L105.44 186.96L105.39 186.65L105.36 186.32L105.34 186L105.33 185.67L105.33 165L105.34 164.41L105.36 163.83L105.39 163.25L105.43 162.67L105.48 162.1L105.55 161.52L105.62 160.95L105.71 160.39L105.81 159.83L105.92 159.27L106.04 158.71L106.17 158.16L106.31 157.61L106.46 157.07L106.63 156.53L106.8 156L106.98 155.47L107.18 154.94L107.38 154.42L107.59 153.9L107.81 153.39L108.05 152.89L108.29 152.39L108.54 151.89L108.8 151.4L109.07 150.92L109.35 150.44L109.64 149.96L109.94 149.5L110.24 149.03L110.56 148.58L110.88 148.13L111.21 147.69L111.55 147.25L111.9 146.82L112.25 146.4L112.61 145.99L112.99 145.58L113.36 145.18L113.75 144.78L113.78 144.75L114.18 144.36L114.58 143.98L114.99 143.61L115.4 143.25L115.82 142.9L116.25 142.55L116.69 142.21L117.13 141.88L117.58 141.56L118.03 141.24L118.5 140.94L118.96 140.64L119.44 140.35L119.92 140.07L120.4 139.8L120.89 139.54L121.39 139.29L121.89 139.05L122.39 138.81L122.9 138.59L123.42 138.38L123.94 138.17L124.47 137.98L125 137.8L125.53 137.63L126.07 137.46L126.61 137.31L127.16 137.17L127.71 137.04L128.27 136.92L128.83 136.81L129.39 136.71L129.95 136.62L130.52 136.55L131.1 136.48L131.67 136.43L132.25 136.39L132.83 136.36L133.41 136.34L134 136.33L506 136.33L506.59 136.34L507.17 136.36ZM133.74 152.34L133.48 152.34L133.22 152.36L132.96 152.38L132.71 152.4L132.45 152.43L132.2 152.46L131.95 152.5L131.7 152.54L131.45 152.59L131.21 152.64L130.96 152.7L130.72 152.76L130.48 152.83L130.24 152.9L130 152.98L129.77 153.06L129.54 153.14L129.31 153.23L129.08 153.33L128.85 153.43L128.63 153.53L128.41 153.63L128.19 153.74L127.97 153.86L127.76 153.98L127.55 154.1L127.34 154.23L127.13 154.36L126.93 154.49L126.73 154.63L126.53 154.77L126.34 154.92L126.15 155.07L125.96 155.22L125.77 155.37L125.59 155.53L125.41 155.7L125.24 155.86L125.07 156.03L125.03 156.07L124.86 156.24L124.7 156.41L124.53 156.59L124.37 156.77L124.22 156.96L124.07 157.15L123.92 157.34L123.77 157.53L123.63 157.73L123.49 157.93L123.36 158.13L123.23 158.33L123.1 158.54L122.98 158.75L122.86 158.97L122.74 159.18L122.63 159.4L122.53 159.62L122.42 159.84L122.33 160.07L122.23 160.3L122.14 160.53L122.06 160.76L121.98 161L121.9 161.23L121.83 161.47L121.76 161.71L121.7 161.96L121.64 162.2L121.59 162.45L121.54 162.69L121.5 162.94L121.46 163.2L121.43 163.45L121.4 163.7L121.38 163.96L121.36 164.22L121.34 164.48L121.34 164.74L121.33 165L121.33 177.67L518.65 177.67L518.65 165L518.65 164.74L518.64 164.48L518.63 164.22L518.61 163.96L518.58 163.71L518.56 163.45L518.52 163.2L518.48 162.95L518.44 162.7L518.39 162.45L518.34 162.21L518.28 161.96L518.22 161.72L518.15 161.48L518.08 161.24L518.01 161L517.92 160.77L517.84 160.54L517.75 160.31L517.66 160.08L517.56 159.85L517.46 159.63L517.35 159.41L517.24 159.19L517.12 158.97L517.01 158.76L516.88 158.55L516.76 158.34L516.63 158.13L516.49 157.93L516.35 157.73L516.21 157.53L516.07 157.34L515.92 157.15L515.76 156.96L515.61 156.77L515.45 156.59L515.29 156.41L515.12 156.24L514.95 156.07L514.92 156.03L514.74 155.86L514.57 155.7L514.39 155.53L514.21 155.37L514.03 155.22L513.84 155.07L513.65 154.92L513.45 154.77L513.26 154.63L513.06 154.49L512.86 154.36L512.65 154.23L512.44 154.1L512.23 153.98L512.02 153.86L511.8 153.74L511.58 153.63L511.36 153.53L511.14 153.43L510.92 153.33L510.69 153.23L510.46 153.14L510.23 153.06L509.99 152.98L509.76 152.9L509.52 152.83L509.28 152.76L509.03 152.7L508.79 152.64L508.54 152.59L508.3 152.54L508.05 152.5L507.8 152.46L507.54 152.43L507.29 152.4L507.04 152.38L506.78 152.36L506.52 152.34L506.26 152.34L506 152.33L134 152.33L133.74 152.34Z" id="b7cL4NzKLt"></path></defs><g><g><g><use xlink:href="#e1bEPiGNmq" opacity="1" fill="#38393b" fill-opacity="1"></use><g><use xlink:href="#e1bEPiGNmq" opacity="1" fill-opacity="0" stroke="#000000" stroke-width="1" stroke-opacity="0"></use></g></g><g><use xlink:href="#c5I6x6I5r8" opacity="1" fill="#38393b" fill-opacity="1"></use><g><use xlink:href="#c5I6x6I5r8" opacity="1" fill-opacity="0" stroke="#000000" stroke-width="1" stroke-opacity="0"></use></g></g><g><use xlink:href="#a2HcwUTQFQ" opacity="1" fill="#38393b" fill-opacity="1"></use><g><use xlink:href="#a2HcwUTQFQ" opacity="1" fill-opacity="0" stroke="#000000" stroke-width="1" stroke-opacity="0"></use></g></g><g><use xlink:href="#c3adeUKPA" opacity="1" fill="#38393b" fill-opacity="1"></use><g><use xlink:href="#c3adeUKPA" opacity="1" fill-opacity="0" stroke="#000000" stroke-width="1" stroke-opacity="0"></use></g></g><g><use xlink:href="#aPREXfhP7" opacity="1" fill="#38393b" fill-opacity="1"></use><g><use xlink:href="#aPREXfhP7" opacity="1" fill-opacity="0" stroke="#000000" stroke-width="1" stroke-opacity="0"></use></g></g><g><use xlink:href="#b7cL4NzKLt" opacity="1" fill="#38393b" fill-opacity="1"></use><g><use xlink:href="#b7cL4NzKLt" opacity="1" fill-opacity="0" stroke="#000000" stroke-width="1" stroke-opacity="0"></use></g></g></g></g></svg>