<?xml version="1.0" encoding="UTF-8" standalone="no"?>
<!DOCTYPE svg PUBLIC "-//W3C//DTD SVG 1.1//EN" "http://www.w3.org/Graphics/SVG/1.1/DTD/svg11.dtd">
<svg version="1.1" xmlns="http://www.w3.org/2000/svg" xmlns:xlink="http://www.w3.org/1999/xlink" preserveAspectRatio="xMidYMid meet" viewBox="0 0 640 640" width="640" height="640"><defs><path d="M152.13 433.22C154.89 433.22 157.63 432.01 159.5 429.68C162.74 425.64 162.07 419.74 158 416.52C150.46 410.54 143.15 404.05 136.3 397.22C131.65 392.6 108.43 369.5 66.64 327.91C109.74 285.02 133.68 261.2 138.47 256.43C207.53 187.73 307.99 164.28 400.6 195.22C405.53 196.84 410.87 194.21 412.53 189.31C414.18 184.41 411.54 179.09 406.6 177.44C307.15 144.23 199.3 169.41 125.16 243.18C119.48 248.82 91.09 277.07 40 327.91C89.78 377.44 117.44 404.96 122.97 410.47C130.33 417.79 138.17 424.76 146.26 431.17C147.99 432.54 150.06 433.22 152.13 433.22Z" id="eyvQMF7rZ"></path><path d="M475.66 214.43C471.35 211.56 465.48 212.7 462.59 216.99C459.69 221.28 460.85 227.11 465.16 230C478.91 239.17 491.89 249.79 503.71 261.56C508.36 266.18 531.58 289.29 573.37 330.87C530.27 373.76 506.33 397.58 501.54 402.35C432 471.54 327.22 494.93 234.57 461.9C229.68 460.15 224.28 462.69 222.53 467.56C220.78 472.43 223.32 477.79 228.22 479.54C258.18 490.22 289.33 495.4 320.27 495.4C392.03 495.4 462.68 467.51 514.85 415.6C520.53 409.95 548.91 381.71 600 330.87L517.04 248.31C499.3 232.3 485.5 221.01 475.66 214.43Z" id="fOprr79uq"></path><path d="M270.4 418.56C266 415.85 260.19 417.18 257.43 421.57C254.68 425.96 256.04 431.74 260.46 434.47C280.56 446.93 303.77 453.51 327.56 453.51C397.65 453.51 454.67 396.77 454.67 327.03C454.67 301.87 447.26 277.57 433.25 256.74C430.35 252.44 424.49 251.29 420.19 254.17C415.87 257.05 414.71 262.87 417.6 267.16C429.53 284.9 435.84 305.59 435.84 327.03C435.84 386.45 387.26 434.77 327.56 434.77C307.28 434.77 287.53 429.17 270.4 418.56Z" id="aLJonq4U2"></path><path d="M382.69 234.27C387.15 236.91 392.93 235.45 395.59 230.99C398.23 226.54 396.76 220.79 392.28 218.15C372.75 206.64 350.37 200.55 327.55 200.55C257.45 200.55 200.43 257.29 200.43 327.03C200.43 346.55 204.78 365.28 213.37 382.69C215.01 386.01 218.35 387.94 221.83 387.94C223.22 387.94 224.64 387.63 225.97 386.98C230.64 384.69 232.57 379.08 230.28 374.44C222.97 359.62 219.26 343.68 219.26 327.04C219.27 267.62 267.85 219.28 327.56 219.28C347 219.28 366.06 224.47 382.69 234.27Z" id="c2JNH7dS5s"></path><path d="M581.24 53.43C530.14 103.78 121.38 506.57 70.28 556.92C65.98 561.16 65.98 568 70.28 572.23C72.42 574.34 75.24 575.4 78.05 575.4C80.86 575.4 83.68 574.34 85.82 572.23C136.91 521.88 545.68 119.09 596.78 68.74C601.07 64.52 601.07 57.67 596.78 53.43C592.48 49.2 585.54 49.2 581.24 53.43Z" id="a10sTkL4T6"></path></defs><g><g><g><use xlink:href="#eyvQMF7rZ" opacity="1" fill="#38393b" fill-opacity="1"></use><g><use xlink:href="#eyvQMF7rZ" opacity="1" fill-opacity="0" stroke="#000000" stroke-width="1" stroke-opacity="0"></use></g></g><g><use xlink:href="#fOprr79uq" opacity="1" fill="#38393b" fill-opacity="1"></use><g><use xlink:href="#fOprr79uq" opacity="1" fill-opacity="0" stroke="#000000" stroke-width="1" stroke-opacity="0"></use></g></g><g><use xlink:href="#aLJonq4U2" opacity="1" fill="#38393b" fill-opacity="1"></use><g><use xlink:href="#aLJonq4U2" opacity="1" fill-opacity="0" stroke="#000000" stroke-width="1" stroke-opacity="0"></use></g></g><g><use xlink:href="#c2JNH7dS5s" opacity="1" fill="#38393b" fill-opacity="1"></use><g><use xlink:href="#c2JNH7dS5s" opacity="1" fill-opacity="0" stroke="#000000" stroke-width="1" stroke-opacity="0"></use></g></g><g><use xlink:href="#a10sTkL4T6" opacity="1" fill="#38393b" fill-opacity="1"></use><g><use xlink:href="#a10sTkL4T6" opacity="1" fill-opacity="0" stroke="#000000" stroke-width="1" stroke-opacity="0"></use></g></g></g></g></svg>