<?xml version="1.0" encoding="UTF-8" standalone="no"?>
<!DOCTYPE svg PUBLIC "-//W3C//DTD SVG 1.1//EN" "http://www.w3.org/Graphics/SVG/1.1/DTD/svg11.dtd">
<svg version="1.1" xmlns="http://www.w3.org/2000/svg" xmlns:xlink="http://www.w3.org/1999/xlink" preserveAspectRatio="xMidYMid meet" viewBox="0 0 640 640" width="640" height="640"><defs><path d="M560 552.97L109.92 552.97L109.92 87.03L479.49 87.03L560 168.67L560 552.97ZM128.68 533.95L175.56 533.95L175.56 334.26L484.99 334.26L484.99 533.95L541.25 533.95L541.25 176.55L471.73 106.05L456.86 106.05L456.86 258.19L194.31 258.19L194.31 106.05L128.68 106.05L128.68 533.95ZM194.31 533.95L466.23 533.95L466.23 353.28L194.31 353.28L194.31 533.95ZM213.07 239.17L438.1 239.17L438.1 106.05L213.07 106.05L213.07 239.17Z" id="e3aKhCVolg"></path><path d="M363.09 220.15L363.09 125.06L419.35 125.06L419.35 220.15L363.09 220.15ZM381.84 201.14L400.6 201.14L400.6 144.08L381.84 144.08L381.84 201.14Z" id="daoqtgLZ4"></path></defs><g><g><g><use xlink:href="#e3aKhCVolg" opacity="1" fill="#3b3838" fill-opacity="1"></use><g><use xlink:href="#e3aKhCVolg" opacity="1" fill-opacity="0" stroke="#000000" stroke-width="1" stroke-opacity="0"></use></g></g><g><use xlink:href="#daoqtgLZ4" opacity="1" fill="#3b3838" fill-opacity="1"></use><g><use xlink:href="#daoqtgLZ4" opacity="1" fill-opacity="0" stroke="#000000" stroke-width="1" stroke-opacity="0"></use></g></g></g></g></svg>