<?xml version="1.0" encoding="UTF-8" standalone="no"?>
<!DOCTYPE svg PUBLIC "-//W3C//DTD SVG 1.1//EN" "http://www.w3.org/Graphics/SVG/1.1/DTD/svg11.dtd">
<svg version="1.1" xmlns="http://www.w3.org/2000/svg" xmlns:xlink="http://www.w3.org/1999/xlink" preserveAspectRatio="xMidYMid meet" viewBox="0 0 640 640" width="640" height="640"><defs><path d="M353.04 189.74L363.8 191.05L374.41 192.82L384.88 195.05L395.2 197.7L405.35 200.73L415.34 204.14L425.15 207.88L434.78 211.93L444.22 216.27L453.46 220.87L462.49 225.69L471.31 230.72L479.9 235.92L488.27 241.27L496.4 246.74L504.28 252.3L511.92 257.93L519.29 263.6L526.39 269.28L533.23 274.95L539.77 280.57L546.03 286.12L551.99 291.58L557.65 296.91L562.99 302.09L568.01 307.09L572.7 311.89L577.05 316.45L581.07 320.75L584.73 324.77L588.03 328.47L590.97 331.82L593.53 334.81L595.71 337.4L597.5 339.57L598.89 341.29L599.88 342.53L600.46 343.27L600.64 343.51L600.81 343.75L600.97 344L601.12 344.26L601.27 344.52L601.4 344.78L601.53 345.04L601.64 345.31L601.75 345.58L601.85 345.85L601.93 346.13L602.01 346.4L602.08 346.68L602.14 346.96L602.19 347.24L602.24 347.53L602.27 347.81L602.29 348.1L602.31 348.38L602.31 348.67L602.31 348.95L602.29 349.24L602.27 349.52L602.24 349.81L602.19 350.09L602.14 350.37L602.08 350.65L602.01 350.93L601.93 351.21L601.85 351.48L601.75 351.75L601.64 352.02L601.53 352.29L601.4 352.56L601.27 352.82L601.12 353.07L600.97 353.33L600.81 353.58L600.64 353.82L600.46 354.06L599.88 354.8L598.89 356.04L597.5 357.76L595.71 359.93L593.53 362.52L590.97 365.51L588.03 368.87L584.73 372.57L581.07 376.58L577.05 380.88L572.7 385.45L568.01 390.24L562.99 395.24L557.65 400.42L551.99 405.76L546.03 411.21L539.77 416.76L533.23 422.39L526.39 428.05L519.29 433.73L511.92 439.4L504.28 445.03L496.4 450.59L488.27 456.06L479.9 461.41L471.31 466.61L462.49 471.64L453.46 476.47L444.22 481.06L434.78 485.4L425.15 489.45L415.34 493.19L405.35 496.6L395.2 499.64L384.88 502.28L374.41 504.51L363.8 506.29L353.04 507.59L342.16 508.39L331.15 508.67L320.15 508.39L309.27 507.59L298.51 506.29L287.9 504.51L277.43 502.28L267.11 499.64L256.95 496.6L246.97 493.19L237.15 489.45L227.53 485.4L218.09 481.06L208.85 476.47L199.82 471.64L191 466.61L182.41 461.41L174.04 456.06L165.91 450.59L158.02 445.03L150.39 439.4L143.02 433.73L135.91 428.05L129.08 422.39L122.53 416.76L116.28 411.21L110.32 405.76L104.66 400.42L99.32 395.24L94.3 390.24L89.61 385.45L85.25 380.88L81.24 376.58L77.58 372.57L74.28 368.87L71.34 365.51L68.78 362.52L66.6 359.93L64.81 357.76L63.42 356.04L62.43 354.8L61.85 354.06L61.67 353.82L61.5 353.58L61.34 353.33L61.19 353.07L61.04 352.82L60.91 352.56L60.78 352.29L60.67 352.02L60.56 351.75L60.46 351.48L60.38 351.21L60.3 350.93L60.23 350.65L60.17 350.37L60.12 350.09L60.07 349.81L60.04 349.52L60.02 349.24L60 348.95L60 348.67L60 348.38L60.02 348.1L60.04 347.81L60.07 347.53L60.12 347.24L60.17 346.96L60.23 346.68L60.3 346.4L60.38 346.13L60.46 345.85L60.56 345.58L60.67 345.31L60.78 345.04L60.91 344.78L61.04 344.52L61.19 344.26L61.34 344L61.5 343.75L61.67 343.51L61.85 343.27L62.43 342.53L63.42 341.29L64.81 339.57L66.6 337.4L68.78 334.81L71.34 331.82L74.28 328.47L77.58 324.77L81.24 320.75L85.25 316.45L89.61 311.89L94.3 307.09L99.32 302.09L104.66 296.91L110.32 291.58L116.28 286.12L122.53 280.57L129.08 274.95L135.91 269.28L143.02 263.6L150.39 257.93L158.02 252.3L165.91 246.74L174.04 241.27L182.41 235.92L191 230.72L199.82 225.69L208.85 220.87L218.09 216.27L227.53 211.93L237.15 207.88L246.97 204.14L256.95 200.73L267.11 197.7L277.43 195.05L287.9 192.82L298.51 191.05L309.27 189.74L320.15 188.94L331.15 188.67L342.16 188.94L353.04 189.74ZM312.82 207.29L303.77 208.31L294.81 209.71L285.94 211.47L277.17 213.56L268.5 215.97L259.95 218.68L251.51 221.67L243.19 224.93L235.01 228.42L226.96 232.14L219.05 236.06L211.29 240.16L203.68 244.43L196.22 248.85L188.94 253.39L181.82 258.04L174.88 262.77L168.13 267.58L161.56 272.44L155.19 277.32L149.02 282.22L143.06 287.11L137.3 291.98L131.77 296.8L126.46 301.55L121.39 306.22L116.55 310.78L111.95 315.22L107.6 319.52L103.51 323.66L99.68 327.62L96.11 331.38L92.82 334.92L89.81 338.22L87.08 341.27L84.64 344.04L82.5 346.51L80.66 348.67L82.5 350.83L84.64 353.3L87.08 356.07L89.81 359.11L92.82 362.41L96.11 365.95L99.68 369.71L103.51 373.67L107.6 377.81L111.95 382.11L116.55 386.55L121.39 391.12L126.46 395.78L131.77 400.54L137.3 405.35L143.06 410.22L149.02 415.11L155.19 420.01L161.56 424.9L168.13 429.75L174.88 434.56L181.82 439.3L188.94 443.94L196.22 448.49L203.68 452.9L211.29 457.17L219.05 461.28L226.96 465.2L235.01 468.91L243.19 472.41L251.51 475.66L259.95 478.65L268.5 481.36L277.17 483.78L285.94 485.87L294.81 487.63L303.77 489.02L312.82 490.05L321.95 490.68L331.15 490.89L340.37 490.68L349.51 490.05L358.57 489.02L367.54 487.63L376.41 485.87L385.19 483.78L393.86 481.36L402.42 478.65L410.86 475.66L419.18 472.41L427.37 468.91L435.42 465.2L443.33 461.28L451.09 457.17L458.7 452.9L466.16 448.49L473.44 443.95L480.56 439.3L487.49 434.56L494.25 429.76L500.81 424.9L507.18 420.01L513.35 415.11L519.31 410.22L525.06 405.36L530.59 400.54L535.89 395.79L540.96 391.12L545.8 386.56L550.39 382.11L554.74 377.81L558.83 373.67L562.65 369.72L566.22 365.96L569.51 362.42L572.52 359.11L575.24 356.07L577.68 353.3L579.82 350.83L581.65 348.67L579.82 346.51L577.67 344.04L575.24 341.27L572.51 338.22L569.5 334.92L566.2 331.38L562.64 327.62L558.81 323.67L554.71 319.53L550.36 315.23L545.77 310.79L540.93 306.22L535.85 301.55L530.55 296.8L525.01 291.98L519.26 287.12L513.3 282.23L507.13 277.33L500.76 272.44L494.19 267.59L487.43 262.78L480.49 258.04L473.38 253.39L466.09 248.85L458.64 244.43L451.03 240.16L443.27 236.06L435.36 232.14L427.31 228.42L419.12 224.93L410.8 221.68L402.37 218.68L393.81 215.97L385.15 213.56L376.37 211.47L367.5 209.71L358.54 208.31L349.49 207.29L340.36 206.66L331.15 206.45L321.95 206.66L312.82 207.29Z" id="bbhGP1zlM"></path><path d="M342.26 215.78L347.72 216.32L353.12 217.08L358.45 218.05L363.7 219.21L368.87 220.58L373.96 222.14L378.97 223.89L383.88 225.83L388.69 227.94L393.41 230.24L398.02 232.7L402.52 235.34L406.91 238.13L411.18 241.09L415.32 244.2L419.34 247.47L423.23 250.88L426.98 254.43L430.59 258.12L434.06 261.94L437.38 265.89L440.54 269.97L443.55 274.17L446.39 278.48L449.07 282.91L451.58 287.44L453.91 292.08L456.06 296.82L458.03 301.65L459.81 306.57L461.4 311.57L462.79 316.66L463.97 321.83L464.96 327.07L465.73 332.38L466.28 337.75L466.62 343.18L466.73 348.67L466.62 354.16L466.28 359.59L465.73 364.96L464.96 370.27L463.97 375.51L462.79 380.67L461.4 385.76L459.81 390.77L458.03 395.69L456.06 400.52L453.91 405.25L451.58 409.89L449.07 414.43L446.39 418.85L443.55 423.17L440.54 427.36L437.38 431.44L434.06 435.39L430.59 439.22L426.98 442.91L423.23 446.46L419.34 449.87L415.32 453.13L411.18 456.24L406.91 459.2L402.52 462L398.02 464.63L393.41 467.1L388.69 469.39L383.88 471.51L378.97 473.44L373.96 475.19L368.87 476.75L363.7 478.12L358.45 479.29L353.12 480.25L347.72 481.01L342.26 481.56L336.74 481.89L331.15 482L325.57 481.89L320.05 481.56L314.59 481.01L309.19 480.25L303.87 479.29L298.61 478.12L293.44 476.75L288.35 475.19L283.34 473.44L278.43 471.51L273.62 469.39L268.9 467.1L264.29 464.63L259.79 462L255.4 459.2L251.14 456.24L246.99 453.13L242.97 449.87L239.08 446.46L235.33 442.91L231.72 439.22L228.25 435.39L224.93 431.44L221.77 427.36L218.76 423.17L215.92 418.85L213.24 414.43L210.73 409.89L208.4 405.25L206.25 400.52L204.28 395.69L202.5 390.77L200.91 385.76L199.52 380.67L198.34 375.51L197.35 370.27L196.58 364.96L196.03 359.59L195.69 354.16L195.58 348.67L195.69 343.18L196.03 337.75L196.58 332.38L197.35 327.07L198.34 321.83L199.52 316.66L200.91 311.57L202.5 306.57L204.28 301.65L206.25 296.82L208.4 292.08L210.73 287.44L213.24 282.91L215.92 278.48L218.76 274.17L221.77 269.97L224.93 265.89L228.25 261.94L231.72 258.12L235.33 254.43L239.08 250.88L242.97 247.47L246.99 244.2L251.14 241.09L255.4 238.13L259.79 235.34L264.29 232.7L268.9 230.24L273.62 227.94L278.43 225.83L283.34 223.89L288.35 222.14L293.44 220.58L298.61 219.21L303.87 218.05L309.19 217.08L314.59 216.32L320.05 215.78L325.57 215.44L331.15 215.33L336.74 215.44L342.26 215.78ZM321.53 233.5L316.8 233.97L312.12 234.63L307.5 235.46L302.95 236.48L298.47 237.66L294.05 239.01L289.72 240.53L285.46 242.21L281.29 244.04L277.2 246.03L273.2 248.17L269.3 250.45L265.5 252.87L261.8 255.44L258.21 258.14L254.73 260.96L251.36 263.92L248.11 267L244.98 270.19L241.97 273.51L239.1 276.93L236.35 280.47L233.75 284.11L231.28 287.84L228.96 291.68L226.79 295.61L224.77 299.63L222.9 303.73L221.2 307.92L219.65 312.18L218.28 316.52L217.08 320.93L216.05 325.41L215.2 329.95L214.53 334.55L214.05 339.2L213.75 343.91L213.65 348.67L213.75 353.42L214.05 358.13L214.53 362.79L215.2 367.39L216.05 371.93L217.08 376.4L218.28 380.81L219.65 385.15L221.2 389.42L222.9 393.6L224.77 397.71L226.79 401.73L228.96 405.65L231.28 409.49L233.75 413.23L236.35 416.87L239.1 420.4L241.97 423.83L244.98 427.14L248.11 430.34L251.36 433.42L254.73 436.37L258.21 439.2L261.8 441.9L265.5 444.46L269.3 446.88L273.2 449.17L277.2 451.3L281.29 453.29L285.46 455.13L289.72 456.8L294.05 458.32L298.47 459.67L302.95 460.86L307.5 461.87L312.12 462.71L316.8 463.36L321.53 463.84L326.32 464.13L331.15 464.22L335.99 464.13L340.78 463.84L345.51 463.36L350.19 462.71L354.8 461.87L359.36 460.86L363.84 459.67L368.25 458.32L372.59 456.8L376.85 455.13L381.02 453.29L385.11 451.3L389.1 449.17L393 446.88L396.8 444.46L400.5 441.9L404.1 439.2L407.58 436.37L410.95 433.42L414.2 430.34L417.33 427.14L420.34 423.83L423.21 420.4L425.95 416.87L428.56 413.23L431.03 409.49L433.35 405.65L435.52 401.73L437.54 397.71L439.41 393.6L441.11 389.42L442.65 385.15L444.03 380.81L445.23 376.4L446.26 371.93L447.11 367.39L447.78 362.79L448.26 358.13L448.56 353.42L448.65 348.67L448.56 343.91L448.26 339.2L447.78 334.55L447.11 329.95L446.26 325.41L445.23 320.93L444.03 316.52L442.65 312.18L441.11 307.92L439.41 303.73L437.54 299.63L435.52 295.61L433.35 291.68L431.03 287.84L428.56 284.11L425.95 280.47L423.21 276.93L420.34 273.51L417.33 270.19L414.2 267L410.95 263.92L407.58 260.96L404.1 258.14L400.5 255.44L396.8 252.87L393 250.45L389.1 248.17L385.11 246.03L381.02 244.04L376.85 242.21L372.59 240.53L368.25 239.01L363.84 237.66L359.36 236.48L354.8 235.46L350.19 234.63L345.51 233.97L340.78 233.5L335.99 233.21L331.15 233.11L326.32 233.21L321.53 233.5Z" id="b7kUBeZyq1"></path></defs><g><g><g><use xlink:href="#bbhGP1zlM" opacity="1" fill="#38393b" fill-opacity="1"></use><g><use xlink:href="#bbhGP1zlM" opacity="1" fill-opacity="0" stroke="#000000" stroke-width="1" stroke-opacity="0"></use></g></g><g><use xlink:href="#b7kUBeZyq1" opacity="1" fill="#38393b" fill-opacity="1"></use><g><use xlink:href="#b7kUBeZyq1" opacity="1" fill-opacity="0" stroke="#000000" stroke-width="1" stroke-opacity="0"></use></g></g></g></g></svg>