<?xml version="1.0" encoding="UTF-8" standalone="no"?>
<!DOCTYPE svg PUBLIC "-//W3C//DTD SVG 1.1//EN" "http://www.w3.org/Graphics/SVG/1.1/DTD/svg11.dtd">
<svg version="1.1" xmlns="http://www.w3.org/2000/svg" xmlns:xlink="http://www.w3.org/1999/xlink" preserveAspectRatio="xMidYMid meet" viewBox="0 0 640 640" width="640" height="640"><defs><path d="M330.22 64.2L335.31 64.45L340.38 64.79L345.43 65.24L350.46 65.78L355.46 66.42L360.44 67.16L365.4 67.99L370.33 68.92L375.24 69.94L380.12 71.06L384.97 72.27L389.79 73.58L394.58 74.98L399.33 76.47L404.06 78.05L408.75 79.73L413.4 81.5L418.02 83.36L422.6 85.31L427.14 87.35L431.64 89.48L436.11 91.7L440.53 94.01L444.9 96.4L449.23 98.89L453.52 101.46L457.76 104.12L461.95 106.87L466.1 109.7L470.19 112.61L474.23 115.62L478.23 118.7L482.16 121.88L486.05 125.13L489.88 128.47L493.65 131.89L497.36 135.39L501.02 138.98L504.6 142.64L508.11 146.35L511.53 150.12L514.87 153.95L518.12 157.84L521.29 161.77L524.38 165.77L527.38 169.81L530.3 173.9L533.13 178.05L535.88 182.24L538.54 186.48L541.11 190.77L543.6 195.1L545.99 199.47L548.3 203.89L550.52 208.36L552.65 212.86L554.69 217.4L556.64 221.98L558.5 226.6L560.27 231.25L561.95 235.94L563.53 240.67L565.02 245.42L566.42 250.21L567.73 255.03L568.94 259.88L570.06 264.76L571.08 269.67L572.01 274.6L572.84 279.56L573.58 284.54L574.22 289.55L574.76 294.57L575.21 299.62L575.55 304.69L575.8 309.78L575.95 314.88L576 320L575.95 325.12L575.8 330.22L575.55 335.31L575.21 340.38L574.76 345.43L574.22 350.45L573.58 355.46L572.84 360.44L572.01 365.4L571.08 370.33L570.06 375.24L568.94 380.12L567.73 384.97L566.42 389.79L565.02 394.58L563.53 399.33L561.95 404.06L560.27 408.75L558.5 413.4L556.64 418.02L554.69 422.6L552.65 427.14L550.52 431.64L548.3 436.11L545.99 440.53L543.6 444.9L541.11 449.23L538.54 453.52L535.88 457.76L533.13 461.95L530.3 466.1L527.38 470.19L524.38 474.23L521.29 478.23L518.12 482.16L514.87 486.05L511.53 489.88L508.11 493.65L504.6 497.36L501.02 501.02L497.36 504.61L493.65 508.11L489.88 511.53L486.05 514.87L482.16 518.12L478.23 521.3L474.23 524.38L470.19 527.39L466.1 530.3L461.95 533.13L457.76 535.88L453.52 538.54L449.23 541.11L444.9 543.6L440.53 545.99L436.11 548.3L431.64 550.52L427.14 552.65L422.6 554.69L418.02 556.64L413.4 558.5L408.75 560.27L404.06 561.95L399.33 563.53L394.58 565.02L389.79 566.42L384.97 567.73L380.12 568.94L375.24 570.06L370.33 571.08L365.4 572.01L360.44 572.84L355.46 573.58L350.46 574.22L345.43 574.76L340.38 575.21L335.31 575.55L330.22 575.8L325.12 575.95L320 576L314.88 575.95L309.78 575.8L304.69 575.55L299.62 575.21L294.57 574.76L289.55 574.22L284.54 573.58L279.56 572.84L274.6 572.01L269.67 571.08L264.76 570.06L259.88 568.94L255.03 567.73L250.21 566.42L245.42 565.02L240.67 563.53L235.94 561.95L231.25 560.27L226.6 558.5L221.98 556.64L217.4 554.69L212.86 552.65L208.36 550.52L203.89 548.3L199.47 545.99L195.1 543.6L190.77 541.11L186.48 538.54L182.24 535.88L178.05 533.13L173.9 530.3L169.81 527.39L165.77 524.38L161.77 521.3L157.84 518.12L153.95 514.87L150.12 511.53L146.35 508.11L142.64 504.61L138.98 501.02L135.39 497.36L131.89 493.65L128.47 489.88L125.13 486.05L121.88 482.16L118.7 478.23L115.62 474.23L112.61 470.19L109.7 466.1L106.87 461.95L104.12 457.76L101.46 453.52L98.89 449.23L96.4 444.9L94.01 440.53L91.7 436.11L89.48 431.64L87.35 427.14L85.31 422.6L83.36 418.02L81.5 413.4L79.73 408.75L78.05 404.06L76.47 399.33L74.98 394.58L73.58 389.79L72.27 384.97L71.06 380.12L69.94 375.24L68.92 370.33L67.99 365.4L67.16 360.44L66.42 355.46L65.78 350.45L65.24 345.43L64.79 340.38L64.45 335.31L64.2 330.22L64.05 325.12L64 320L64.05 314.88L64.2 309.78L64.45 304.69L64.79 299.62L65.24 294.57L65.78 289.55L66.42 284.54L67.16 279.56L67.99 274.6L68.92 269.67L69.94 264.76L71.06 259.88L72.27 255.03L73.58 250.21L74.98 245.42L76.47 240.67L78.05 235.94L79.73 231.25L81.5 226.6L83.36 221.98L85.31 217.4L87.35 212.86L89.48 208.36L91.7 203.89L94.01 199.47L96.4 195.1L98.89 190.77L101.46 186.48L104.12 182.24L106.87 178.05L109.7 173.9L112.61 169.81L115.62 165.77L118.7 161.77L121.88 157.84L125.13 153.95L128.47 150.12L131.89 146.35L135.39 142.64L138.98 138.98L142.64 135.39L146.35 131.89L150.12 128.47L153.95 125.13L157.84 121.88L161.77 118.7L165.77 115.62L169.81 112.61L173.9 109.7L178.05 106.87L182.24 104.12L186.48 101.46L190.77 98.89L195.1 96.4L199.47 94.01L203.89 91.7L208.36 89.48L212.86 87.35L217.4 85.31L221.98 83.36L226.6 81.5L231.25 79.73L235.94 78.05L240.67 76.47L245.42 74.98L250.21 73.58L255.03 72.27L259.88 71.06L264.76 69.94L269.67 68.92L274.6 67.99L279.56 67.16L284.54 66.42L289.55 65.78L294.57 65.24L299.62 64.79L304.69 64.45L309.78 64.2L314.88 64.05L320 64L325.12 64.05L330.22 64.2ZM551.21 354.59L550.16 355.27L549.08 355.95L547.99 356.62L546.87 357.29L545.72 357.95L544.56 358.61L543.38 359.27L542.17 359.92L540.94 360.57L539.69 361.21L538.41 361.85L537.12 362.49L535.8 363.12L534.46 363.74L533.1 364.37L531.71 364.98L530.31 365.6L528.88 366.21L527.43 366.81L525.96 367.41L524.47 368.01L522.95 368.6L521.42 369.19L519.86 369.77L518.28 370.35L516.68 370.92L515.06 371.49L513.41 372.05L511.75 372.61L510.06 373.17L508.35 373.72L506.62 374.26L504.87 374.8L503.09 375.34L501.3 375.87L499.48 376.4L497.65 376.92L495.79 377.43L492.23 378.39L488.61 379.33L484.94 380.25L481.21 381.14L477.43 382.01L473.6 382.86L469.72 383.69L465.79 384.49L461.81 385.28L457.78 386.03L453.7 386.77L449.58 387.48L445.41 388.17L441.2 388.84L436.95 389.48L432.65 390.1L428.32 390.69L423.95 391.26L419.54 391.81L415.09 392.33L410.6 392.83L406.08 393.3L401.53 393.75L396.94 394.18L392.33 394.57L387.68 394.95L383 395.3L378.3 395.62L373.56 395.92L368.8 396.2L364.02 396.45L359.21 396.67L354.38 396.87L349.52 397.04L344.65 397.18L339.75 397.3L334.84 397.39L329.91 397.46L324.96 397.5L320 397.51L315.04 397.5L310.09 397.46L305.16 397.39L300.24 397.3L295.35 397.18L290.48 397.04L285.62 396.87L280.79 396.67L275.98 396.45L271.2 396.2L266.44 395.92L261.7 395.62L257 395.3L252.32 394.95L247.67 394.57L243.05 394.18L238.47 393.75L233.91 393.3L229.4 392.83L224.91 392.33L220.46 391.81L216.05 391.26L211.68 390.69L207.34 390.1L203.05 389.48L198.8 388.84L194.59 388.17L190.42 387.48L186.3 386.77L182.22 386.03L178.19 385.28L174.21 384.49L170.28 383.69L166.4 382.86L162.56 382.01L158.78 381.14L155.06 380.25L151.39 379.33L147.77 378.39L144.21 377.43L142.35 376.92L140.51 376.4L138.7 375.87L136.9 375.34L135.13 374.8L133.38 374.26L131.65 373.72L129.94 373.17L128.25 372.61L126.59 372.05L124.94 371.49L123.32 370.92L121.72 370.35L120.14 369.77L118.58 369.19L117.05 368.6L115.53 368.01L114.04 367.41L112.57 366.81L111.12 366.21L109.69 365.6L108.28 364.99L106.9 364.37L105.54 363.75L104.2 363.12L102.88 362.49L101.59 361.85L100.31 361.21L99.06 360.57L97.83 359.92L96.62 359.27L95.44 358.61L94.27 357.95L93.13 357.29L92.01 356.62L90.92 355.95L89.84 355.27L88.79 354.59L87.76 353.9L86.75 353.21L88.12 361.73L89.79 370.15L91.75 378.45L94.01 386.64L96.56 394.71L99.38 402.65L102.47 410.46L105.84 418.13L109.46 425.66L113.34 433.03L117.47 440.25L121.85 447.31L126.46 454.2L131.31 460.92L136.39 467.45L141.68 473.81L147.19 479.97L152.91 485.93L158.84 491.69L164.96 497.25L171.27 502.59L177.77 507.71L184.45 512.6L191.31 517.26L198.33 521.69L205.52 525.87L212.86 529.8L220.36 533.48L228 536.89L235.78 540.04L243.7 542.92L251.74 545.52L259.9 547.84L268.19 549.86L276.58 551.59L285.08 553.02L293.67 554.14L302.36 554.95L311.14 555.44L320 555.6L328.86 555.44L337.64 554.95L346.33 554.14L354.92 553.02L363.42 551.59L371.81 549.86L380.1 547.84L388.26 545.52L396.3 542.92L404.22 540.04L412 536.89L419.64 533.48L427.14 529.8L434.48 525.87L441.67 521.69L448.69 517.26L455.55 512.6L462.23 507.71L468.73 502.59L475.04 497.25L481.16 491.69L487.09 485.93L492.81 479.97L498.32 473.81L503.61 467.45L508.69 460.92L513.53 454.2L518.15 447.31L522.52 440.25L526.66 433.03L530.54 425.66L534.16 418.13L537.53 410.46L540.62 402.65L543.44 394.71L545.99 386.64L548.24 378.45L550.21 370.15L551.88 361.73L553.25 353.21L552.24 353.9L551.21 354.59ZM302 85.08L293.13 85.92L284.36 87.09L275.7 88.58L267.14 90.38L258.7 92.48L250.39 94.89L242.2 97.6L234.14 100.59L226.23 103.87L218.47 107.42L210.85 111.24L203.4 115.33L196.11 119.67L189 124.27L182.06 129.11L175.31 134.19L168.74 139.5L162.38 145.05L156.21 150.81L150.26 156.78L144.52 162.97L139 169.35L133.71 175.94L128.65 182.71L123.83 189.66L119.26 196.8L114.94 204.1L110.88 211.57L107.08 219.2L103.56 226.98L100.31 234.91L97.34 242.97L94.67 251.17L92.29 259.5L90.21 267.95L88.44 276.52L86.98 285.2L85.84 293.98L85.94 294.01L86.03 294.04L86.13 294.08L86.22 294.11L86.32 294.15L86.41 294.19L86.51 294.23L86.6 294.27L86.69 294.31L86.78 294.35L86.88 294.39L86.97 294.44L87.06 294.48L87.15 294.53L87.24 294.58L87.33 294.62L87.42 294.67L87.51 294.72L87.6 294.77L87.69 294.83L87.78 294.88L87.87 294.93L87.96 294.99L88.04 295.04L88.13 295.1L88.22 295.16L88.3 295.22L88.39 295.28L88.48 295.34L88.56 295.4L88.64 295.46L88.73 295.53L88.81 295.59L88.89 295.66L88.98 295.72L89.06 295.79L89.14 295.86L89.22 295.93L89.3 296L89.38 296.07L89.69 296.36L89.98 296.66L90.25 296.97L90.52 297.28L90.76 297.61L91 297.94L91.21 298.28L91.42 298.62L91.61 298.98L91.78 299.33L91.94 299.7L92.08 300.07L92.21 300.44L92.33 300.82L92.43 301.2L92.51 301.58L92.58 301.96L92.64 302.35L92.68 302.74L92.71 303.13L92.72 303.52L92.71 303.92L92.7 304.31L92.66 304.7L92.61 305.09L92.55 305.48L92.47 305.86L92.38 306.24L92.27 306.62L92.14 307L92 307.37L91.85 307.74L91.68 308.11L91.5 308.47L91.3 308.82L91.08 309.16L90.85 309.5L90.6 309.84L90.34 310.16L90.07 310.48L89.84 310.73L89.61 310.99L89.4 311.24L89.19 311.49L88.98 311.74L88.78 311.99L88.59 312.24L88.4 312.49L88.22 312.74L88.04 312.99L87.87 313.23L87.7 313.48L87.54 313.72L87.39 313.97L87.24 314.21L87.1 314.45L86.96 314.69L86.83 314.93L86.7 315.17L86.59 315.41L86.47 315.65L86.36 315.89L86.26 316.13L86.17 316.36L86.08 316.6L85.99 316.83L85.91 317.06L85.84 317.29L85.77 317.52L85.71 317.75L85.66 317.98L85.61 318.21L85.56 318.44L85.52 318.66L85.49 318.89L85.46 319.11L85.44 319.34L85.43 319.56L85.42 319.78L85.42 320L85.45 320.71L85.55 321.44L85.71 322.19L85.94 322.96L86.23 323.75L86.6 324.56L87.04 325.39L87.55 326.24L88.13 327.1L88.79 327.98L89.52 328.88L90.33 329.79L91.22 330.71L92.19 331.64L93.24 332.59L94.37 333.55L95.58 334.52L96.89 335.49L98.27 336.48L99.75 337.48L101.31 338.48L102.97 339.48L104.71 340.5L106.55 341.51L108.48 342.54L110.51 343.56L112.63 344.59L114.85 345.61L117.17 346.64L119.6 347.67L122.12 348.7L124.74 349.72L127.48 350.75L130.31 351.77L133.25 352.78L136.31 353.79L139.47 354.8L142.74 355.79L146.12 356.78L149.62 357.77L153.05 358.69L156.54 359.59L160.08 360.48L163.67 361.34L167.32 362.18L171.02 363L174.77 363.79L178.57 364.57L182.42 365.32L186.31 366.05L190.26 366.76L194.24 367.45L198.27 368.11L202.35 368.75L206.46 369.37L210.62 369.97L214.82 370.54L219.05 371.09L223.33 371.62L227.64 372.12L231.99 372.6L236.37 373.06L240.78 373.49L245.23 373.9L249.71 374.28L254.22 374.64L258.76 374.98L263.33 375.29L267.93 375.58L272.55 375.85L277.2 376.09L281.87 376.3L286.57 376.49L291.28 376.66L296.02 376.8L300.78 376.91L305.56 377L310.36 377.06L315.17 377.1L320 377.12L324.83 377.1L329.64 377.06L334.44 377L339.22 376.91L343.98 376.8L348.72 376.66L353.43 376.49L358.13 376.3L362.8 376.09L367.45 375.85L372.07 375.58L376.67 375.29L381.24 374.98L385.78 374.64L390.29 374.28L394.77 373.9L399.22 373.49L403.63 373.06L408.01 372.6L412.36 372.12L416.67 371.62L420.95 371.09L425.18 370.54L429.38 369.97L433.54 369.37L437.65 368.75L441.73 368.11L445.76 367.45L449.75 366.76L453.69 366.05L457.58 365.32L461.43 364.57L465.23 363.79L468.98 363L472.68 362.18L476.33 361.34L479.92 360.48L483.46 359.59L486.95 358.69L490.38 357.76L493.88 356.78L497.26 355.79L500.53 354.79L503.7 353.79L506.75 352.78L509.69 351.77L512.53 350.75L515.26 349.72L517.88 348.7L520.41 347.67L522.83 346.64L525.15 345.61L527.37 344.59L529.49 343.56L531.52 342.53L533.45 341.51L535.29 340.5L537.03 339.48L538.69 338.47L540.25 337.47L541.73 336.48L543.11 335.49L544.42 334.52L545.63 333.55L546.76 332.59L547.81 331.64L548.78 330.71L549.67 329.78L550.48 328.88L551.21 327.98L551.87 327.1L552.45 326.24L552.96 325.39L553.4 324.56L553.77 323.75L554.06 322.96L554.29 322.19L554.45 321.44L554.55 320.71L554.58 320L554.58 319.78L554.57 319.56L554.56 319.34L554.54 319.11L554.51 318.89L554.48 318.66L554.44 318.44L554.39 318.21L554.34 317.98L554.29 317.75L554.23 317.52L554.16 317.29L554.09 317.06L554.01 316.83L553.92 316.59L553.83 316.36L553.74 316.12L553.64 315.89L553.53 315.65L553.41 315.41L553.3 315.17L553.17 314.93L553.04 314.69L552.9 314.45L552.76 314.21L552.61 313.97L552.46 313.72L552.3 313.48L552.13 313.23L551.96 312.98L551.78 312.74L551.6 312.49L551.41 312.24L551.22 311.99L551.02 311.74L550.81 311.49L550.6 311.24L550.39 310.99L550.16 310.73L549.93 310.48L549.66 310.16L549.4 309.84L549.15 309.5L548.92 309.16L548.7 308.82L548.5 308.47L548.32 308.11L548.15 307.74L548 307.37L547.86 307L547.73 306.62L547.62 306.24L547.53 305.86L547.45 305.48L547.39 305.09L547.34 304.7L547.3 304.31L547.28 303.92L547.28 303.52L547.29 303.13L547.32 302.74L547.36 302.35L547.41 301.96L547.49 301.58L547.57 301.2L547.67 300.82L547.79 300.44L547.92 300.07L548.06 299.7L548.22 299.33L548.39 298.98L548.58 298.62L548.79 298.28L549 297.94L549.24 297.61L549.48 297.28L549.75 296.97L550.02 296.66L550.31 296.36L550.62 296.07L550.7 296L550.78 295.93L550.86 295.86L550.94 295.79L551.02 295.72L551.1 295.66L551.19 295.59L551.27 295.53L551.35 295.46L551.44 295.4L551.52 295.34L551.61 295.28L551.69 295.22L551.78 295.16L551.87 295.1L551.95 295.04L552.04 294.99L552.13 294.93L552.22 294.88L552.31 294.83L552.4 294.77L552.49 294.72L552.58 294.67L552.67 294.62L552.76 294.58L552.85 294.53L552.94 294.48L553.03 294.44L553.12 294.39L553.22 294.35L553.31 294.31L553.4 294.27L553.49 294.23L553.59 294.19L553.68 294.15L553.78 294.11L553.87 294.08L553.97 294.04L554.06 294.01L554.16 293.97L553.02 285.2L551.56 276.52L549.79 267.95L547.71 259.5L545.33 251.17L542.66 242.97L539.69 234.9L536.44 226.98L532.92 219.2L529.12 211.57L525.06 204.1L520.74 196.8L516.17 189.66L511.35 182.71L506.29 175.94L501 169.35L495.48 162.97L489.74 156.78L483.79 150.81L477.62 145.05L471.26 139.5L464.69 134.19L457.94 129.11L451 124.27L443.89 119.67L436.6 115.33L429.15 111.24L421.53 107.42L413.77 103.87L405.86 100.59L397.8 97.6L389.61 94.89L381.3 92.48L372.86 90.38L364.3 88.58L355.64 87.09L346.87 85.92L338 85.08L329.04 84.57L320 84.4L310.96 84.57L302 85.08Z" id="bak6V1gNYM"></path><path d="M339.24 242.69C339.16 242.69 339.09 242.69 339.02 242.69C333.48 242.69 328.94 247.11 328.82 252.67C328.7 258.3 333.17 262.96 338.81 263.08C351.44 263.35 364.07 263.89 376.32 264.7C376.55 264.71 376.78 264.72 377 264.72C382.33 264.72 386.82 260.58 387.17 255.19C387.54 249.57 383.28 244.71 377.66 244.34C365.1 243.52 352.17 242.96 339.24 242.69Z" id="e36P4n0wZh"></path><path d="M416.02 247.79C410.42 247.14 405.36 251.16 404.71 256.75C404.07 262.35 408.08 267.41 413.67 268.06C426.51 269.54 438.96 271.35 450.68 273.43C451.28 273.53 451.88 273.58 452.47 273.58C457.32 273.58 461.62 270.11 462.5 265.16C463.48 259.62 459.78 254.32 454.24 253.34C442.12 251.19 429.26 249.33 416.02 247.79Z" id="a33jtBI7a0"></path><path d="M492.2 261.6C486.76 260.16 481.17 263.41 479.73 268.85C478.29 274.3 481.54 279.88 486.99 281.32C500.16 284.8 511.82 288.68 521.64 292.85C522.94 293.4 524.29 293.66 525.62 293.66C529.59 293.66 533.36 291.33 535.01 287.45C537.21 282.27 534.8 276.28 529.61 274.08C518.9 269.53 506.31 265.33 492.2 261.6Z" id="beHZAn4Ya"></path><path d="M147.84 261.59C133.73 265.32 121.14 269.51 110.43 274.06C105.24 276.26 102.82 282.25 105.03 287.43C106.67 291.32 110.45 293.65 114.42 293.65C115.75 293.65 117.1 293.39 118.4 292.84C128.22 288.67 139.88 284.79 153.05 281.31C158.5 279.87 161.75 274.29 160.31 268.85C158.87 263.4 153.29 260.15 147.84 261.59Z" id="c3imVaGbvn"></path><path d="M262.38 244.34C256.76 244.71 252.5 249.56 252.87 255.18C253.22 260.58 257.7 264.72 263.03 264.72C263.26 264.72 263.48 264.71 263.71 264.69C275.97 263.89 288.59 263.35 301.23 263.08C306.86 262.96 311.33 258.3 311.21 252.67C311.09 247.04 306.42 242.53 300.8 242.69C287.86 242.96 274.93 243.52 262.38 244.34Z" id="a1GWJCjao9"></path><path d="M224.02 247.79C210.77 249.32 197.92 251.18 185.8 253.33C180.25 254.32 176.55 259.61 177.53 265.16C178.41 270.1 182.71 273.58 187.57 273.58C188.16 273.58 188.76 273.53 189.36 273.42C201.07 271.34 213.52 269.54 226.36 268.05C231.96 267.41 235.97 262.35 235.32 256.75C234.67 251.15 229.61 247.13 224.02 247.79Z" id="aqPe5Z9tK"></path></defs><g><g><g><use xlink:href="#bak6V1gNYM" opacity="1" fill="#38393b" fill-opacity="1"></use><g><use xlink:href="#bak6V1gNYM" opacity="1" fill-opacity="0" stroke="#000000" stroke-width="1" stroke-opacity="0"></use></g></g><g><use xlink:href="#e36P4n0wZh" opacity="1" fill="#38393b" fill-opacity="1"></use><g><use xlink:href="#e36P4n0wZh" opacity="1" fill-opacity="0" stroke="#000000" stroke-width="1" stroke-opacity="0"></use></g></g><g><use xlink:href="#a33jtBI7a0" opacity="1" fill="#38393b" fill-opacity="1"></use><g><use xlink:href="#a33jtBI7a0" opacity="1" fill-opacity="0" stroke="#000000" stroke-width="1" stroke-opacity="0"></use></g></g><g><use xlink:href="#beHZAn4Ya" opacity="1" fill="#38393b" fill-opacity="1"></use><g><use xlink:href="#beHZAn4Ya" opacity="1" fill-opacity="0" stroke="#000000" stroke-width="1" stroke-opacity="0"></use></g></g><g><use xlink:href="#c3imVaGbvn" opacity="1" fill="#38393b" fill-opacity="1"></use><g><use xlink:href="#c3imVaGbvn" opacity="1" fill-opacity="0" stroke="#000000" stroke-width="1" stroke-opacity="0"></use></g></g><g><use xlink:href="#a1GWJCjao9" opacity="1" fill="#38393b" fill-opacity="1"></use><g><use xlink:href="#a1GWJCjao9" opacity="1" fill-opacity="0" stroke="#000000" stroke-width="1" stroke-opacity="0"></use></g></g><g><use xlink:href="#aqPe5Z9tK" opacity="1" fill="#38393b" fill-opacity="1"></use><g><use xlink:href="#aqPe5Z9tK" opacity="1" fill-opacity="0" stroke="#000000" stroke-width="1" stroke-opacity="0"></use></g></g></g></g></svg>