<?xml version="1.0" encoding="UTF-8" standalone="no"?>
<!DOCTYPE svg PUBLIC "-//W3C//DTD SVG 1.1//EN" "http://www.w3.org/Graphics/SVG/1.1/DTD/svg11.dtd">
<svg version="1.1" xmlns="http://www.w3.org/2000/svg" xmlns:xlink="http://www.w3.org/1999/xlink" preserveAspectRatio="xMidYMid meet" viewBox="0 0 640 640" width="640" height="640"><defs><path d="M320.39 64.01L320.58 64.02L320.78 64.04L320.97 64.06L321.16 64.09L321.35 64.12L321.55 64.16L321.74 64.2L321.93 64.25L322.11 64.3L322.3 64.36L322.49 64.42L322.67 64.49L322.86 64.56L323.04 64.64L323.22 64.72L323.4 64.81L323.58 64.9L323.75 65L538.96 189.25L539.13 189.36L539.3 189.46L539.47 189.57L539.63 189.69L539.79 189.81L539.94 189.93L540.09 190.06L540.24 190.19L540.38 190.32L540.52 190.46L540.66 190.6L540.79 190.74L540.92 190.89L541.04 191.04L541.16 191.19L541.28 191.35L541.39 191.51L541.5 191.67L541.6 191.83L541.7 192L541.8 192.17L541.89 192.34L541.98 192.51L542.06 192.69L542.13 192.87L542.21 193.05L542.27 193.23L542.34 193.42L542.4 193.6L542.45 193.79L542.5 193.98L542.54 194.17L542.58 194.37L542.61 194.56L542.64 194.76L542.67 194.95L542.68 195.15L542.7 195.35L542.71 195.55L542.71 195.75L542.71 444.25L542.71 444.45L542.7 444.65L542.68 444.85L542.67 445.05L542.64 445.24L542.61 445.44L542.58 445.63L542.54 445.83L542.5 446.02L542.45 446.21L542.4 446.4L542.34 446.58L542.27 446.77L542.21 446.95L542.13 447.13L542.06 447.31L541.98 447.48L541.89 447.66L541.8 447.83L541.7 448L541.6 448.17L541.5 448.33L541.39 448.49L541.28 448.65L541.16 448.81L541.04 448.96L540.92 449.11L540.79 449.26L540.66 449.4L540.52 449.54L540.38 449.68L540.24 449.81L540.09 449.94L539.94 450.07L539.79 450.19L539.63 450.31L539.47 450.42L539.3 450.53L539.13 450.64L538.96 450.74L323.75 574.99L323.66 575.04L323.57 575.09L323.49 575.14L323.4 575.19L323.31 575.23L323.22 575.27L323.13 575.32L323.04 575.36L322.95 575.4L322.86 575.44L322.76 575.47L322.67 575.51L322.58 575.54L322.49 575.58L322.39 575.61L322.3 575.64L322.21 575.67L322.11 575.7L322.02 575.72L321.92 575.75L321.83 575.77L321.74 575.8L321.64 575.82L321.54 575.84L321.45 575.86L321.35 575.88L321.26 575.9L321.16 575.91L321.06 575.93L320.97 575.94L320.87 575.95L320.78 575.96L320.68 575.97L320.58 575.98L320.48 575.99L320.39 575.99L320.29 576L320.19 576L320.1 576L320 576L319.9 576L319.81 576L319.71 576L319.61 575.99L319.51 575.99L319.42 575.98L319.32 575.97L319.22 575.96L319.13 575.95L319.03 575.94L318.93 575.93L318.84 575.91L318.74 575.9L318.65 575.88L318.55 575.86L318.45 575.84L318.36 575.82L318.26 575.8L318.17 575.77L318.07 575.75L317.98 575.72L317.89 575.7L317.79 575.67L317.7 575.64L317.6 575.61L317.51 575.58L317.42 575.54L317.33 575.51L317.23 575.47L317.14 575.44L317.05 575.4L316.96 575.36L316.87 575.32L316.78 575.27L316.69 575.23L316.6 575.19L316.51 575.14L316.42 575.09L316.34 575.04L316.25 574.99L259.22 542.07L258.96 541.91L258.7 541.74L258.46 541.56L258.22 541.38L257.99 541.18L257.77 540.98L257.56 540.77L257.36 540.55L257.17 540.33L256.99 540.1L256.82 539.86L256.66 539.62L256.5 539.37L256.36 539.12L256.23 538.86L256.11 538.6L256 538.34L255.9 538.07L255.81 537.79L255.73 537.52L255.66 537.24L255.6 536.95L255.55 536.67L255.52 536.38L255.49 536.1L255.47 535.81L255.47 535.52L255.48 535.23L255.5 534.94L255.53 534.65L255.57 534.36L255.62 534.07L255.69 533.78L255.76 533.5L255.85 533.21L255.95 532.93L256.07 532.65L256.19 532.37L256.33 532.1L256.48 531.83L256.64 531.56L256.81 531.31L256.98 531.06L257.17 530.82L257.36 530.59L257.57 530.37L257.78 530.16L257.99 529.96L258.22 529.77L258.45 529.59L258.68 529.42L258.92 529.26L259.17 529.11L259.42 528.97L259.68 528.83L259.94 528.71L260.21 528.6L260.48 528.5L260.75 528.41L261.03 528.33L261.31 528.26L261.59 528.2L261.88 528.15L262.16 528.12L262.45 528.09L262.74 528.08L263.03 528.07L263.32 528.08L263.61 528.1L263.9 528.13L264.19 528.17L264.48 528.22L264.76 528.29L265.05 528.37L265.34 528.46L265.62 528.56L265.9 528.67L266.18 528.79L266.45 528.93L266.72 529.08L312.5 555.51L312.5 329.29L312.43 329.31L312.36 329.34L312.29 329.37L312.22 329.4L312.15 329.42L312.08 329.45L312.01 329.47L311.93 329.5L311.86 329.52L311.79 329.54L311.72 329.57L311.65 329.59L311.58 329.61L311.5 329.63L311.43 329.64L311.36 329.66L311.29 329.68L311.22 329.7L311.14 329.71L311.07 329.73L311 329.74L310.93 329.75L310.85 329.77L310.78 329.78L310.71 329.79L310.64 329.8L310.56 329.81L310.49 329.82L310.42 329.83L310.34 329.84L310.27 329.84L310.2 329.85L310.12 329.85L310.05 329.86L309.98 329.86L309.91 329.87L309.83 329.87L309.76 329.87L309.69 329.87L309.61 329.87L309.42 329.87L309.22 329.86L309.03 329.85L308.84 329.83L308.65 329.81L308.45 329.78L308.26 329.75L308.07 329.71L307.89 329.67L307.7 329.62L307.51 329.57L307.33 329.52L307.14 329.46L306.96 329.39L306.78 329.32L306.6 329.24L306.43 329.17L306.25 329.08L306.08 328.99L305.91 328.9L305.74 328.8L305.58 328.7L305.41 328.59L305.25 328.48L305.1 328.37L304.94 328.25L304.79 328.12L304.64 327.99L304.49 327.86L304.35 327.72L304.21 327.58L304.07 327.44L303.94 327.29L303.81 327.13L303.68 326.97L303.56 326.81L303.44 326.64L303.33 326.47L303.22 326.3L303.11 326.12L303.02 325.95L302.92 325.77L302.83 325.59L302.75 325.41L302.67 325.23L302.6 325.05L302.53 324.87L302.47 324.68L302.41 324.5L302.36 324.31L302.32 324.13L302.27 323.94L302.24 323.75L302.2 323.57L302.18 323.38L302.15 323.19L302.13 323L302.12 322.81L302.11 322.63L302.11 322.44L302.11 322.25L302.12 322.06L302.13 321.88L302.14 321.69L302.16 321.5L302.19 321.32L302.22 321.13L302.25 320.95L302.29 320.77L302.33 320.59L302.38 320.4L302.43 320.23L302.48 320.05L302.54 319.87L302.61 319.7L302.68 319.52L302.75 319.35L302.83 319.18L302.91 319.01L303 318.84L112.29 208.74L112.29 427.84L112.32 427.82L112.35 427.79L112.38 427.76L112.41 427.74L112.44 427.71L112.47 427.68L112.5 427.66L112.53 427.63L112.57 427.6L112.6 427.58L112.63 427.55L112.66 427.53L112.69 427.5L112.72 427.47L112.76 427.45L112.79 427.42L112.82 427.4L112.85 427.37L112.89 427.35L112.92 427.32L112.95 427.3L112.99 427.28L113.02 427.25L113.05 427.23L113.09 427.2L113.12 427.18L113.15 427.16L113.19 427.13L113.22 427.11L113.26 427.09L113.29 427.07L113.33 427.04L113.36 427.02L113.4 427L113.44 426.98L113.47 426.95L113.51 426.93L113.54 426.91L113.58 426.89L113.62 426.87L124.01 420.87L124.28 420.72L124.55 420.58L124.83 420.46L125.11 420.35L125.39 420.24L125.68 420.16L125.96 420.08L126.25 420.01L126.54 419.96L126.83 419.92L127.12 419.89L127.41 419.87L127.7 419.86L127.99 419.87L128.28 419.88L128.57 419.91L128.85 419.94L129.14 419.99L129.42 420.05L129.7 420.12L129.97 420.2L130.25 420.29L130.52 420.39L130.78 420.5L131.05 420.62L131.3 420.75L131.56 420.9L131.8 421.05L132.05 421.21L132.28 421.38L132.51 421.56L132.74 421.75L132.95 421.95L133.16 422.16L133.37 422.38L133.56 422.61L133.75 422.85L133.92 423.09L134.09 423.35L134.25 423.61L134.4 423.89L134.54 424.16L134.66 424.44L134.78 424.72L134.88 425L134.97 425.28L135.04 425.57L135.11 425.86L135.16 426.15L135.2 426.44L135.23 426.73L135.25 427.02L135.26 427.31L135.26 427.6L135.24 427.89L135.21 428.17L135.18 428.46L135.13 428.74L135.07 429.02L135 429.3L134.92 429.58L134.83 429.85L134.73 430.12L134.62 430.39L134.5 430.65L134.37 430.91L134.23 431.16L134.07 431.41L133.91 431.65L133.74 431.89L133.56 432.12L133.37 432.34L133.17 432.56L132.96 432.77L132.74 432.97L132.51 433.16L132.27 433.35L132.03 433.53L131.77 433.7L131.51 433.86L121.12 439.86L121.03 439.91L120.94 439.96L120.85 440L120.76 440.05L120.67 440.1L120.58 440.14L120.49 440.18L120.4 440.22L120.3 440.26L120.21 440.3L120.12 440.34L120.03 440.38L119.93 440.41L119.84 440.44L119.75 440.48L119.65 440.51L119.56 440.54L119.47 440.56L119.37 440.59L119.28 440.62L119.18 440.64L119.09 440.66L118.99 440.69L118.9 440.71L118.8 440.73L118.71 440.74L118.61 440.76L118.52 440.78L118.42 440.79L118.33 440.8L118.23 440.81L118.14 440.83L118.04 440.83L117.94 440.84L117.85 440.85L117.75 440.85L117.66 440.86L117.56 440.86L117.47 440.86L117.37 440.86L117.23 440.86L117.09 440.86L116.95 440.85L116.81 440.84L116.67 440.83L116.54 440.82L116.4 440.8L116.26 440.78L116.12 440.76L115.99 440.73L115.85 440.71L115.71 440.68L115.58 440.64L115.45 440.61L115.31 440.57L115.18 440.53L115.05 440.49L114.92 440.45L114.78 440.4L114.66 440.35L114.53 440.3L114.4 440.24L114.27 440.19L114.15 440.13L114.02 440.07L113.9 440L113.77 439.94L113.65 439.87L113.53 439.8L113.41 439.73L113.29 439.65L113.18 439.57L113.06 439.49L112.95 439.41L112.83 439.33L112.72 439.24L112.61 439.15L112.5 439.06L112.4 438.97L112.29 438.87L112.29 439.92L240.44 513.91L240.71 514.07L240.96 514.24L241.21 514.42L241.45 514.6L241.68 514.8L241.9 515L242.11 515.21L242.31 515.43L242.5 515.65L242.68 515.88L242.85 516.12L243.01 516.36L243.16 516.61L243.3 516.86L243.44 517.12L243.56 517.38L243.67 517.65L243.77 517.92L243.86 518.19L243.94 518.47L244.01 518.75L244.07 519.03L244.11 519.31L244.15 519.6L244.18 519.89L244.19 520.17L244.2 520.46L244.19 520.75L244.17 521.05L244.14 521.34L244.1 521.63L244.04 521.91L243.98 522.2L243.9 522.49L243.81 522.77L243.71 523.06L243.6 523.34L243.48 523.61L243.34 523.89L243.19 524.16L243.03 524.42L242.86 524.68L242.68 524.92L242.5 525.16L242.3 525.39L242.1 525.61L241.89 525.82L241.67 526.02L241.45 526.21L241.22 526.39L240.98 526.56L240.74 526.72L240.49 526.88L240.24 527.02L239.98 527.15L239.72 527.27L239.46 527.38L239.19 527.48L238.91 527.57L238.64 527.65L238.36 527.72L238.07 527.78L237.79 527.83L237.5 527.86L237.22 527.89L236.93 527.91L236.64 527.91L236.35 527.9L236.06 527.88L235.77 527.85L235.48 527.81L235.19 527.76L234.9 527.69L234.61 527.62L234.33 527.53L234.05 527.43L233.77 527.31L233.49 527.19L233.22 527.05L232.94 526.9L101.04 450.75L100.87 450.64L100.7 450.54L100.53 450.43L100.37 450.31L100.21 450.19L100.06 450.07L99.91 449.94L99.76 449.81L99.62 449.68L99.48 449.54L99.34 449.4L99.21 449.26L99.08 449.11L98.96 448.96L98.84 448.81L98.72 448.65L98.61 448.49L98.5 448.33L98.4 448.17L98.3 448L98.2 447.83L98.11 447.66L98.02 447.49L97.94 447.31L97.87 447.13L97.79 446.95L97.73 446.77L97.66 446.58L97.6 446.4L97.55 446.21L97.5 446.02L97.46 445.83L97.42 445.63L97.39 445.44L97.36 445.24L97.33 445.05L97.32 444.85L97.3 444.65L97.29 444.45L97.29 444.25L97.29 195.75L97.29 195.55L97.3 195.35L97.32 195.15L97.33 194.95L97.36 194.76L97.39 194.56L97.42 194.37L97.46 194.17L97.5 193.98L97.55 193.79L97.6 193.6L97.66 193.42L97.73 193.23L97.79 193.05L97.87 192.87L97.94 192.69L98.02 192.51L98.11 192.34L98.2 192.17L98.3 192L98.4 191.83L98.5 191.67L98.61 191.51L98.72 191.35L98.84 191.19L98.96 191.04L99.08 190.89L99.21 190.74L99.34 190.6L99.48 190.46L99.62 190.32L99.76 190.19L99.91 190.06L100.06 189.93L100.21 189.81L100.37 189.69L100.53 189.57L100.7 189.46L100.87 189.36L101.04 189.25L316.25 65L316.42 64.9L316.6 64.81L316.78 64.72L316.96 64.64L317.14 64.56L317.33 64.49L317.51 64.42L317.7 64.36L317.89 64.3L318.07 64.25L318.26 64.2L318.45 64.16L318.65 64.12L318.84 64.09L319.03 64.06L319.22 64.04L319.42 64.02L319.61 64.01L319.81 64L320 64L320.19 64L320.39 64.01ZM527.39 439.15L527.28 439.24L527.16 439.33L527.05 439.41L526.94 439.49L526.82 439.57L526.71 439.65L526.59 439.73L526.47 439.8L526.35 439.87L526.23 439.94L526.1 440L525.98 440.07L525.85 440.13L525.73 440.19L525.6 440.24L525.47 440.3L525.34 440.35L525.21 440.4L525.08 440.45L524.95 440.49L524.82 440.53L524.69 440.57L524.55 440.61L524.42 440.64L524.28 440.68L524.15 440.71L524.01 440.73L523.88 440.76L523.74 440.78L523.6 440.8L523.46 440.82L523.33 440.83L523.19 440.84L523.05 440.85L522.91 440.86L522.77 440.86L522.63 440.86L522.53 440.86L522.44 440.86L522.34 440.86L522.25 440.85L522.15 440.85L522.06 440.84L521.96 440.83L521.87 440.83L521.77 440.81L521.67 440.8L521.58 440.79L521.48 440.78L521.39 440.76L521.29 440.74L521.2 440.73L521.1 440.71L521.01 440.69L520.91 440.66L520.82 440.64L520.72 440.62L520.63 440.59L520.53 440.56L520.44 440.54L520.35 440.51L520.25 440.48L520.16 440.44L520.07 440.41L519.97 440.38L519.88 440.34L519.79 440.3L519.7 440.26L519.61 440.22L519.51 440.18L519.42 440.14L519.33 440.1L519.24 440.05L519.15 440L519.06 439.96L518.97 439.91L518.88 439.86L508.49 433.86L508.23 433.7L507.97 433.53L507.73 433.35L507.49 433.16L507.26 432.97L507.04 432.77L506.83 432.56L506.63 432.34L506.44 432.12L506.26 431.89L506.09 431.65L505.93 431.41L505.77 431.16L505.63 430.91L505.5 430.65L505.38 430.39L505.27 430.12L505.17 429.85L505.08 429.58L505 429.3L504.93 429.02L504.87 428.74L504.82 428.46L504.79 428.17L504.76 427.89L504.74 427.6L504.74 427.31L504.75 427.02L504.77 426.73L504.8 426.44L504.84 426.15L504.89 425.86L504.96 425.57L505.03 425.28L505.12 425L505.22 424.72L505.34 424.44L505.46 424.16L505.6 423.89L505.75 423.61L505.91 423.35L506.08 423.09L506.25 422.85L506.44 422.61L506.63 422.38L506.84 422.16L507.05 421.95L507.26 421.75L507.49 421.56L507.72 421.38L507.95 421.21L508.19 421.05L508.44 420.89L508.69 420.75L508.95 420.62L509.21 420.5L509.48 420.39L509.75 420.29L510.02 420.2L510.3 420.12L510.58 420.05L510.86 419.99L511.15 419.94L511.43 419.9L511.72 419.88L512.01 419.86L512.3 419.86L512.59 419.87L512.88 419.89L513.17 419.92L513.46 419.96L513.75 420.01L514.04 420.08L514.32 420.15L514.61 420.24L514.89 420.34L515.17 420.46L515.45 420.58L515.72 420.72L515.99 420.87L526.38 426.87L526.42 426.89L526.46 426.91L526.49 426.93L526.53 426.95L526.56 426.97L526.6 427L526.64 427.02L526.67 427.04L526.71 427.06L526.74 427.09L526.78 427.11L526.81 427.13L526.84 427.16L526.88 427.18L526.91 427.2L526.95 427.23L526.98 427.25L527.01 427.27L527.05 427.3L527.08 427.32L527.11 427.35L527.15 427.37L527.18 427.4L527.21 427.42L527.24 427.45L527.28 427.47L527.31 427.5L527.34 427.52L527.37 427.55L527.4 427.57L527.43 427.6L527.46 427.63L527.5 427.65L527.53 427.68L527.56 427.71L527.59 427.73L527.62 427.76L527.65 427.79L527.68 427.81L527.71 427.84L527.71 208.74L337 318.84L337.09 319.01L337.17 319.18L337.25 319.35L337.32 319.52L337.39 319.7L337.46 319.87L337.52 320.05L337.57 320.23L337.62 320.4L337.67 320.59L337.71 320.77L337.75 320.95L337.78 321.13L337.81 321.32L337.84 321.5L337.86 321.69L337.87 321.88L337.88 322.06L337.89 322.25L337.89 322.44L337.89 322.63L337.88 322.82L337.87 323L337.85 323.19L337.82 323.38L337.8 323.57L337.76 323.75L337.73 323.94L337.68 324.13L337.64 324.31L337.59 324.5L337.53 324.68L337.47 324.87L337.4 325.05L337.33 325.23L337.25 325.41L337.17 325.59L337.08 325.77L336.98 325.95L336.89 326.12L336.78 326.3L336.67 326.47L336.56 326.64L336.44 326.81L336.32 326.97L336.19 327.13L336.06 327.29L335.93 327.44L335.79 327.58L335.65 327.72L335.51 327.86L335.36 327.99L335.21 328.12L335.06 328.25L334.9 328.37L334.75 328.48L334.58 328.59L334.42 328.7L334.26 328.8L334.09 328.9L333.92 328.99L333.75 329.08L333.57 329.17L333.39 329.24L333.22 329.32L333.04 329.39L332.85 329.46L332.67 329.52L332.49 329.57L332.3 329.62L332.11 329.67L331.92 329.71L331.73 329.75L331.54 329.78L331.35 329.81L331.16 329.83L330.97 329.85L330.77 329.86L330.58 329.87L330.39 329.87L330.31 329.87L330.24 329.87L330.17 329.87L330.09 329.87L330.02 329.86L329.95 329.86L329.88 329.85L329.8 329.85L329.73 329.84L329.66 329.84L329.58 329.83L329.51 329.82L329.44 329.81L329.36 329.8L329.29 329.79L329.22 329.78L329.15 329.77L329.07 329.75L329 329.74L328.93 329.73L328.86 329.71L328.78 329.7L328.71 329.68L328.64 329.66L328.57 329.65L328.5 329.63L328.42 329.61L328.35 329.59L328.28 329.57L328.21 329.55L328.14 329.52L328.07 329.5L327.99 329.48L327.92 329.45L327.85 329.43L327.78 329.4L327.71 329.37L327.64 329.35L327.57 329.32L327.5 329.29L327.5 555.51L527.71 439.92L527.71 438.87L527.6 438.97L527.5 439.06L527.39 439.15ZM327.49 94.69L327.48 95L327.44 95.3L327.4 95.6L327.35 95.9L327.28 96.19L327.21 96.47L327.12 96.76L327.02 97.03L326.91 97.3L326.79 97.57L326.66 97.83L326.52 98.09L326.38 98.34L326.22 98.58L326.05 98.81L325.88 99.04L325.7 99.27L325.5 99.48L325.3 99.69L325.1 99.89L324.88 100.08L324.66 100.26L324.43 100.44L324.19 100.6L323.95 100.76L323.7 100.91L323.45 101.05L323.19 101.18L322.92 101.3L322.65 101.41L322.37 101.5L322.09 101.59L321.8 101.67L321.51 101.73L321.22 101.79L320.92 101.83L320.62 101.86L320.31 101.88L320 101.89L319.69 101.88L319.39 101.86L319.08 101.83L318.78 101.79L318.49 101.73L318.2 101.67L317.91 101.59L317.63 101.5L317.35 101.41L317.08 101.3L316.81 101.18L316.55 101.05L316.3 100.91L316.05 100.76L315.81 100.6L315.57 100.44L315.34 100.26L315.12 100.08L314.9 99.89L314.7 99.69L314.5 99.48L314.31 99.27L314.12 99.04L313.95 98.81L313.78 98.58L313.62 98.34L313.48 98.09L313.34 97.83L313.21 97.57L313.09 97.3L312.98 97.03L312.88 96.76L312.79 96.47L312.72 96.19L312.65 95.9L312.6 95.6L312.56 95.3L312.52 95L312.51 94.69L312.5 94.39L312.5 84.49L119.79 195.75L312.5 307.01L312.5 304.37L312.51 304.06L312.52 303.76L312.56 303.45L312.6 303.15L312.65 302.86L312.72 302.57L312.79 302.28L312.88 302L312.98 301.72L313.09 301.45L313.21 301.18L313.34 300.92L313.48 300.67L313.62 300.42L313.78 300.18L313.95 299.94L314.12 299.71L314.31 299.49L314.5 299.27L314.7 299.07L314.9 298.87L315.12 298.68L315.34 298.49L315.57 298.32L315.81 298.15L316.05 297.99L316.3 297.85L316.55 297.71L316.81 297.58L317.08 297.46L317.35 297.35L317.63 297.25L317.91 297.17L318.2 297.09L318.49 297.02L318.78 296.97L319.08 296.93L319.39 296.9L319.69 296.88L320 296.87L320.31 296.88L320.62 296.9L320.92 296.93L321.22 296.97L321.51 297.02L321.8 297.09L322.09 297.17L322.37 297.25L322.65 297.35L322.92 297.46L323.19 297.58L323.45 297.71L323.7 297.85L323.95 297.99L324.19 298.15L324.43 298.32L324.66 298.49L324.88 298.68L325.1 298.87L325.3 299.07L325.5 299.27L325.7 299.49L325.88 299.71L326.05 299.94L326.22 300.18L326.38 300.42L326.52 300.67L326.66 300.92L326.79 301.18L326.91 301.45L327.02 301.72L327.12 302L327.21 302.28L327.28 302.57L327.35 302.86L327.4 303.15L327.44 303.45L327.48 303.76L327.49 304.06L327.5 304.37L327.5 307.01L520.21 195.75L327.5 84.49L327.5 94.39L327.49 94.69Z" id="d6fHEv46q"></path><path d="M412.27 361.52L412.91 361.66L413.55 361.86L414.17 362.11L414.77 362.43L435.36 374.31L435.94 374.68L436.47 375.09L436.95 375.54L437.39 376.03L437.78 376.55L438.13 377.09L438.42 377.66L438.66 378.26L438.86 378.87L438.99 379.49L439.08 380.13L439.11 380.77L439.09 381.41L439.01 382.06L438.87 382.7L438.68 383.33L438.42 383.95L438.11 384.56L437.86 384.95L437.6 385.32L437.32 385.67L437.03 386L436.71 386.31L436.38 386.6L436.04 386.87L435.68 387.11L435.31 387.34L434.93 387.54L434.53 387.72L434.13 387.87L433.73 388L433.31 388.11L432.89 388.2L432.47 388.26L432.04 388.3L431.61 388.31L431.39 388.31L431.18 388.3L430.97 388.28L430.76 388.26L430.54 388.23L430.33 388.2L430.12 388.16L429.91 388.11L429.7 388.06L429.49 388L429.28 387.94L429.07 387.87L428.87 387.79L428.66 387.71L428.46 387.62L428.26 387.52L428.06 387.42L427.86 387.31L407.27 375.42L406.7 375.05L406.17 374.64L405.68 374.19L405.24 373.7L404.85 373.19L404.51 372.64L404.21 372.07L403.97 371.47L403.78 370.86L403.64 370.24L403.55 369.6L403.52 368.96L403.55 368.32L403.63 367.67L403.76 367.03L403.96 366.4L404.21 365.78L404.53 365.17L404.9 364.6L405.31 364.07L405.76 363.58L406.24 363.14L406.76 362.75L407.31 362.41L407.88 362.11L408.47 361.87L409.08 361.68L409.71 361.54L410.34 361.45L410.98 361.42L411.63 361.45L412.27 361.52Z" id="ii6NJI8DN"></path><path d="M361.66 332.31L362.3 332.44L362.94 332.64L363.56 332.89L364.16 333.21L384.75 345.09L385.33 345.46L385.86 345.87L386.34 346.32L386.78 346.81L387.17 347.33L387.52 347.87L387.81 348.45L388.05 349.04L388.24 349.65L388.38 350.27L388.47 350.91L388.5 351.55L388.48 352.2L388.4 352.84L388.26 353.48L388.07 354.11L387.81 354.73L387.5 355.34L387.25 355.73L386.99 356.1L386.71 356.45L386.41 356.78L386.1 357.09L385.77 357.38L385.42 357.65L385.07 357.89L384.7 358.12L384.31 358.32L383.92 358.5L383.52 358.65L383.11 358.79L382.7 358.89L382.28 358.98L381.85 359.04L381.42 359.08L380.99 359.09L380.78 359.09L380.57 359.08L380.36 359.06L380.14 359.04L379.93 359.01L379.72 358.98L379.51 358.94L379.3 358.9L379.09 358.84L378.88 358.78L378.67 358.72L378.46 358.65L378.26 358.57L378.05 358.49L377.85 358.4L377.65 358.3L377.45 358.2L377.25 358.09L356.66 346.2L356.09 345.83L355.56 345.42L355.07 344.97L354.63 344.49L354.24 343.97L353.9 343.42L353.6 342.85L353.36 342.26L353.17 341.65L353.03 341.02L352.94 340.39L352.91 339.74L352.94 339.1L353.02 338.45L353.15 337.81L353.35 337.18L353.6 336.56L353.92 335.95L354.29 335.38L354.7 334.85L355.15 334.36L355.63 333.92L356.15 333.53L356.7 333.19L357.27 332.89L357.86 332.65L358.47 332.46L359.1 332.32L359.73 332.23L360.37 332.2L361.02 332.23L361.66 332.31Z" id="b89mKJnyY"></path><path d="M462.88 390.74L463.52 390.88L464.15 391.08L464.78 391.33L465.38 391.65L485.97 403.53L486.55 403.9L487.08 404.31L487.56 404.76L488 405.25L488.39 405.77L488.74 406.31L489.03 406.88L489.27 407.48L489.46 408.09L489.6 408.71L489.69 409.35L489.72 409.99L489.7 410.63L489.62 411.28L489.48 411.92L489.28 412.55L489.03 413.17L488.72 413.78L488.47 414.17L488.21 414.54L487.93 414.89L487.63 415.22L487.32 415.53L486.99 415.82L486.64 416.09L486.29 416.33L485.92 416.56L485.53 416.76L485.14 416.94L484.74 417.09L484.33 417.22L483.92 417.33L483.5 417.42L483.07 417.48L482.64 417.52L482.21 417.53L482 417.53L481.79 417.52L481.58 417.5L481.36 417.48L481.15 417.45L480.94 417.42L480.73 417.38L480.52 417.33L480.31 417.28L480.1 417.22L479.89 417.16L479.68 417.09L479.48 417.01L479.27 416.93L479.07 416.83L478.87 416.74L478.67 416.63L478.47 416.52L457.88 404.64L457.31 404.27L456.78 403.86L456.29 403.41L455.85 402.92L455.46 402.4L455.12 401.86L454.82 401.29L454.58 400.69L454.39 400.08L454.25 399.46L454.16 398.82L454.13 398.18L454.16 397.54L454.24 396.89L454.37 396.25L454.57 395.62L454.82 395L455.14 394.39L455.51 393.82L455.92 393.28L456.37 392.8L456.85 392.36L457.37 391.97L457.92 391.63L458.49 391.33L459.08 391.09L459.69 390.9L460.32 390.76L460.95 390.67L461.59 390.64L462.24 390.66L462.88 390.74Z" id="a37By0RaJe"></path><path d="M280.9 332.32L281.53 332.46L282.14 332.65L282.73 332.89L283.3 333.19L283.85 333.53L284.37 333.92L284.85 334.36L285.3 334.85L285.71 335.38L286.08 335.95L286.4 336.56L286.65 337.18L286.85 337.81L286.98 338.45L287.06 339.1L287.09 339.74L287.06 340.39L286.97 341.02L286.83 341.65L286.64 342.26L286.4 342.85L286.1 343.42L285.76 343.97L285.37 344.49L284.93 344.97L284.44 345.42L283.91 345.83L283.34 346.2L262.75 358.09L262.55 358.2L262.35 358.3L262.15 358.4L261.95 358.49L261.74 358.57L261.54 358.65L261.33 358.72L261.12 358.78L260.91 358.84L260.7 358.9L260.49 358.94L260.28 358.98L260.07 359.01L259.86 359.04L259.64 359.06L259.43 359.08L259.22 359.09L259.01 359.09L258.58 359.08L258.15 359.04L257.72 358.98L257.3 358.89L256.89 358.79L256.48 358.65L256.08 358.5L255.69 358.32L255.3 358.12L254.93 357.89L254.58 357.65L254.23 357.38L253.9 357.09L253.59 356.78L253.29 356.45L253.01 356.1L252.75 355.73L252.5 355.34L252.19 354.73L251.93 354.11L251.74 353.48L251.6 352.84L251.52 352.2L251.5 351.55L251.53 350.91L251.62 350.27L251.76 349.65L251.95 349.04L252.19 348.45L252.48 347.87L252.83 347.33L253.22 346.81L253.66 346.32L254.14 345.87L254.67 345.46L255.25 345.09L275.84 333.21L276.44 332.89L277.06 332.64L277.7 332.44L278.34 332.31L278.98 332.23L279.63 332.2L280.27 332.23L280.9 332.32Z" id="bEJ634zFF"></path><path d="M179.68 390.76L180.31 390.9L180.92 391.09L181.51 391.33L182.08 391.63L182.63 391.97L183.15 392.36L183.63 392.8L184.08 393.28L184.49 393.82L184.86 394.39L185.18 395L185.43 395.62L185.63 396.25L185.76 396.89L185.84 397.54L185.87 398.18L185.84 398.83L185.75 399.46L185.61 400.08L185.42 400.69L185.18 401.29L184.88 401.86L184.54 402.41L184.15 402.92L183.71 403.41L183.22 403.86L182.69 404.27L182.12 404.64L161.53 416.52L161.33 416.63L161.13 416.74L160.93 416.84L160.73 416.93L160.52 417.01L160.32 417.09L160.11 417.16L159.9 417.22L159.69 417.28L159.48 417.34L159.27 417.38L159.06 417.42L158.85 417.46L158.64 417.48L158.43 417.5L158.21 417.52L158 417.53L157.79 417.53L157.36 417.52L156.93 417.48L156.5 417.42L156.08 417.34L155.67 417.23L155.26 417.09L154.86 416.94L154.47 416.76L154.08 416.56L153.71 416.33L153.36 416.09L153.01 415.82L152.68 415.53L152.37 415.22L152.07 414.89L151.79 414.54L151.53 414.17L151.28 413.78L150.97 413.17L150.72 412.55L150.52 411.92L150.38 411.28L150.3 410.63L150.28 409.99L150.31 409.35L150.4 408.71L150.54 408.09L150.73 407.48L150.97 406.89L151.26 406.31L151.61 405.77L152 405.25L152.44 404.76L152.92 404.31L153.45 403.9L154.03 403.54L174.62 391.65L175.22 391.33L175.84 391.08L176.48 390.88L177.12 390.75L177.76 390.67L178.41 390.64L179.05 390.67L179.68 390.76Z" id="eIxvzEGrZ"></path><path d="M230.29 361.54L230.92 361.68L231.53 361.87L232.12 362.11L232.69 362.41L233.24 362.75L233.76 363.14L234.24 363.58L234.69 364.07L235.1 364.6L235.47 365.17L235.79 365.78L236.04 366.4L236.24 367.03L236.37 367.67L236.45 368.32L236.48 368.96L236.45 369.61L236.36 370.24L236.22 370.87L236.03 371.48L235.79 372.07L235.49 372.64L235.15 373.19L234.76 373.7L234.32 374.19L233.83 374.64L233.3 375.05L232.73 375.42L212.14 387.31L211.94 387.42L211.74 387.52L211.54 387.62L211.34 387.71L211.13 387.79L210.93 387.87L210.72 387.94L210.51 388L210.3 388.06L210.09 388.11L209.88 388.16L209.67 388.2L209.46 388.23L209.25 388.26L209.03 388.28L208.82 388.3L208.61 388.31L208.4 388.31L207.97 388.3L207.54 388.26L207.11 388.2L206.69 388.11L206.28 388L205.87 387.87L205.47 387.72L205.08 387.54L204.69 387.34L204.32 387.11L203.97 386.87L203.62 386.6L203.29 386.31L202.98 386L202.68 385.67L202.4 385.32L202.14 384.95L201.89 384.56L201.58 383.95L201.32 383.33L201.13 382.7L200.99 382.06L200.91 381.41L200.89 380.77L200.92 380.13L201.01 379.49L201.15 378.87L201.34 378.26L201.58 377.67L201.87 377.09L202.22 376.55L202.61 376.03L203.05 375.54L203.53 375.09L204.06 374.68L204.64 374.31L225.23 362.43L225.83 362.12L226.45 361.86L227.09 361.66L227.73 361.53L228.37 361.45L229.02 361.42L229.66 361.45L230.29 361.54Z" id="b1bpRmmXSk"></path><path d="M321.35 238.55L321.99 238.7L322.62 238.9L323.21 239.16L323.78 239.46L324.32 239.81L324.83 240.2L325.3 240.63L325.74 241.1L326.13 241.61L326.48 242.15L326.78 242.72L327.03 243.32L327.23 243.94L327.38 244.58L327.47 245.25L327.5 245.93L327.5 269.7L327.47 270.39L327.38 271.05L327.23 271.7L327.03 272.32L326.78 272.92L326.48 273.49L326.13 274.03L325.74 274.53L325.3 275.01L324.83 275.44L324.33 275.83L323.79 276.18L323.22 276.48L322.62 276.73L321.99 276.94L321.35 277.08L320.68 277.17L320 277.2L319.32 277.17L318.65 277.08L318.01 276.94L317.38 276.73L316.79 276.48L316.22 276.18L315.68 275.83L315.17 275.44L314.7 275.01L314.26 274.53L313.87 274.03L313.52 273.49L313.22 272.92L312.97 272.32L312.77 271.7L312.62 271.05L312.53 270.39L312.5 269.7L312.5 245.93L312.53 245.25L312.62 244.58L312.77 243.94L312.97 243.32L313.22 242.72L313.52 242.15L313.87 241.61L314.26 241.1L314.7 240.63L315.17 240.2L315.68 239.81L316.22 239.46L316.79 239.16L317.38 238.9L318.01 238.7L318.65 238.55L319.32 238.46L320 238.43L320.68 238.46L321.35 238.55Z" id="au5nerNwv"></path><path d="M321.35 121.67L321.99 121.82L322.62 122.02L323.21 122.28L323.78 122.58L324.32 122.93L324.83 123.32L325.3 123.75L325.74 124.22L326.13 124.73L326.48 125.27L326.78 125.84L327.03 126.44L327.23 127.06L327.38 127.71L327.47 128.37L327.5 129.05L327.5 152.82L327.47 153.51L327.38 154.17L327.23 154.82L327.03 155.44L326.78 156.04L326.48 156.61L326.13 157.15L325.74 157.66L325.3 158.13L324.83 158.56L324.33 158.95L323.79 159.3L323.22 159.6L322.62 159.85L321.99 160.06L321.35 160.2L320.68 160.29L320 160.32L319.32 160.29L318.65 160.2L318.01 160.06L317.38 159.85L316.79 159.6L316.22 159.3L315.68 158.95L315.17 158.56L314.7 158.13L314.26 157.66L313.87 157.15L313.52 156.61L313.22 156.04L312.97 155.44L312.77 154.82L312.62 154.17L312.53 153.51L312.5 152.82L312.5 129.05L312.53 128.37L312.62 127.71L312.77 127.06L312.97 126.44L313.22 125.84L313.52 125.27L313.87 124.73L314.26 124.22L314.7 123.75L315.17 123.32L315.68 122.93L316.22 122.58L316.79 122.28L317.38 122.02L318.01 121.82L318.65 121.67L319.32 121.58L320 121.55L320.68 121.58L321.35 121.67Z" id="aDi3BuTOZ"></path><path d="M321.35 180.11L321.99 180.26L322.62 180.46L323.21 180.71L323.78 181.02L324.32 181.36L324.83 181.76L325.3 182.19L325.74 182.66L326.13 183.17L326.48 183.71L326.78 184.28L327.03 184.88L327.23 185.5L327.38 186.14L327.47 186.81L327.5 187.49L327.5 211.26L327.47 211.94L327.38 212.61L327.23 213.26L327.03 213.88L326.78 214.48L326.48 215.05L326.13 215.59L325.74 216.09L325.3 216.57L324.83 217L324.33 217.39L323.79 217.74L323.22 218.04L322.62 218.29L321.99 218.49L321.35 218.64L320.68 218.73L320 218.76L319.32 218.73L318.65 218.64L318.01 218.49L317.38 218.29L316.79 218.04L316.22 217.74L315.68 217.39L315.17 217L314.7 216.57L314.26 216.09L313.87 215.59L313.52 215.05L313.22 214.48L312.97 213.88L312.77 213.26L312.62 212.61L312.53 211.94L312.5 211.26L312.5 187.49L312.53 186.81L312.62 186.14L312.77 185.5L312.97 184.88L313.22 184.28L313.52 183.71L313.87 183.17L314.26 182.66L314.7 182.19L315.17 181.76L315.68 181.36L316.22 181.02L316.79 180.71L317.38 180.46L318.01 180.26L318.65 180.11L319.32 180.02L320 179.99L320.68 180.02L321.35 180.11Z" id="c5RoIsKTsT"></path></defs><g><g><g><use xlink:href="#d6fHEv46q" opacity="1" fill="#38393b" fill-opacity="1"></use><g><use xlink:href="#d6fHEv46q" opacity="1" fill-opacity="0" stroke="#000000" stroke-width="1" stroke-opacity="0"></use></g></g><g><use xlink:href="#ii6NJI8DN" opacity="1" fill="#38393b" fill-opacity="1"></use><g><use xlink:href="#ii6NJI8DN" opacity="1" fill-opacity="0" stroke="#000000" stroke-width="1" stroke-opacity="0"></use></g></g><g><use xlink:href="#b89mKJnyY" opacity="1" fill="#38393b" fill-opacity="1"></use><g><use xlink:href="#b89mKJnyY" opacity="1" fill-opacity="0" stroke="#000000" stroke-width="1" stroke-opacity="0"></use></g></g><g><use xlink:href="#a37By0RaJe" opacity="1" fill="#38393b" fill-opacity="1"></use><g><use xlink:href="#a37By0RaJe" opacity="1" fill-opacity="0" stroke="#000000" stroke-width="1" stroke-opacity="0"></use></g></g><g><use xlink:href="#bEJ634zFF" opacity="1" fill="#38393b" fill-opacity="1"></use><g><use xlink:href="#bEJ634zFF" opacity="1" fill-opacity="0" stroke="#000000" stroke-width="1" stroke-opacity="0"></use></g></g><g><use xlink:href="#eIxvzEGrZ" opacity="1" fill="#38393b" fill-opacity="1"></use><g><use xlink:href="#eIxvzEGrZ" opacity="1" fill-opacity="0" stroke="#000000" stroke-width="1" stroke-opacity="0"></use></g></g><g><use xlink:href="#b1bpRmmXSk" opacity="1" fill="#38393b" fill-opacity="1"></use><g><use xlink:href="#b1bpRmmXSk" opacity="1" fill-opacity="0" stroke="#000000" stroke-width="1" stroke-opacity="0"></use></g></g><g><use xlink:href="#au5nerNwv" opacity="1" fill="#38393b" fill-opacity="1"></use><g><use xlink:href="#au5nerNwv" opacity="1" fill-opacity="0" stroke="#000000" stroke-width="1" stroke-opacity="0"></use></g></g><g><use xlink:href="#aDi3BuTOZ" opacity="1" fill="#38393b" fill-opacity="1"></use><g><use xlink:href="#aDi3BuTOZ" opacity="1" fill-opacity="0" stroke="#000000" stroke-width="1" stroke-opacity="0"></use></g></g><g><use xlink:href="#c5RoIsKTsT" opacity="1" fill="#38393b" fill-opacity="1"></use><g><use xlink:href="#c5RoIsKTsT" opacity="1" fill-opacity="0" stroke="#000000" stroke-width="1" stroke-opacity="0"></use></g></g></g></g></svg>